<?xml version="1.0" encoding="utf-8"?>
<!-- Generator: Adobe Illustrator 18.0.0, SVG Export Plug-In . SVG Version: 6.00 Build 0)  -->
<!DOCTYPE svg PUBLIC "-//W3C//DTD SVG 1.1//EN" "http://www.w3.org/Graphics/SVG/1.1/DTD/svg11.dtd">
<svg version="1.1" id="Layer_1" xmlns="http://www.w3.org/2000/svg" xmlns:xlink="http://www.w3.org/1999/xlink" x="0px" y="0px"
	 viewBox="0 0 1190.6 841.9" enable-background="new 0 0 1190.6 841.9" xml:space="preserve">
<g>
	<path fill="#70408D" d="M949.1,746.4v-338c0-3.9-3.1-7-7-7l0,0c-173.2,0.3-144.8,11-224.1,11h0.2c-2.3,0-4.3,1.9-4.3,4.3V493h0
		c0,7.3-5.9,13.2-13.2,13.2l-0.1,0c0,0-0.1,0-0.3,0l0,0c0,0-73.8,5.5-190.7,5.5c-116.9,0-190.7-5.5-190.7-5.5l0,0
		c-0.2,0-0.3,0-0.3,0l-0.1,0c-7.3,0-13.2-5.9-13.2-13.2h0v-76.4c0-2.3-1.9-4.3-4.3-4.3h0.2c-79.4,0-50.9-10.7-224.1-11l0,0
		c-3.9,0-7,3.1-7,7v338c0,1.4,0.7,2.7,1.8,3.5c0,0,1,0.8,2.4,0.8c1.4,0,869.3,0,870.7,0s2.4-0.8,2.4-0.8
		C948.4,749.1,949.1,747.8,949.1,746.4z"/>
	<polygon fill="#70408D" points="949.1,408.1 949.1,408.3 949.1,408.3 	"/>
</g>
<g>
	<path fill="#70408D" d="M949.1,339.6V139.6c0-3.9-3.1-7-7-7l0,0c-173.2,0.3-144.8,11-224.1,11h0.2c-2.3,0-4.3,1.9-4.3,4.3v76.4h0
		c0,7.3-5.9,13.2-13.2,13.2l-0.1,0c0,0-0.1,0-0.3,0l0,0c0,0-73.8,5.5-190.7,5.5c-116.9,0-190.7-5.5-190.7-5.5l0,0
		c-0.2,0-0.3,0-0.3,0l-0.1,0c-7.3,0-13.2-5.9-13.2-13.2h0v-76.4c0-2.3-1.9-4.3-4.3-4.3h0.2c-79.4,0-50.9-10.7-224.1-11l0,0
		c-3.9,0-7,3.1-7,7v199.9c0,1.4,0.7,2.7,1.8,3.5c0,0,1,0.8,2.4,0.8c1.4,0,869.3,0,870.7,0s2.4-0.8,2.4-0.8
		C948.4,342.3,949.1,341,949.1,339.6z"/>
	<polygon fill="#70408D" points="949.1,139.4 949.1,139.6 949.1,139.6 	"/>
</g>
<polyline fill="#FFFFFF" stroke="#000000" stroke-width="1.000000e-02" stroke-miterlimit="10" points="2505.3,140.1 2505.3,344.5 
	1626.1,344.5 1626.1,140.1 "/>
<circle fill="#FFFFFF" stroke="#000000" stroke-width="1.000000e-02" stroke-miterlimit="10" cx="1874.5" cy="225" r="13.2"/>
<path fill="#FFFFFF" stroke="#000000" stroke-width="1.000000e-02" stroke-miterlimit="10" d="M1874.6,238.2c0,0,73,5.5,190.3,5.5
	c117.3,0,191.5-5.5,191.5-5.5"/>
<line fill="none" stroke="#000000" stroke-width="1.000000e-02" stroke-miterlimit="10" x1="1861.3" y1="148.6" x2="1861.3" y2="225"/>
<line fill="none" stroke="#000000" stroke-width="1.000000e-02" stroke-miterlimit="10" x1="2269.9" y1="129.6" x2="2269.9" y2="238.3"/>
<path fill="#FFFFFF" stroke="#000000" stroke-width="1.000000e-02" stroke-miterlimit="10" d="M1633.1,133.3
	c173.2,0.3,144.8,11,224.1,11"/>
<circle fill="#FFFFFF" stroke="#000000" stroke-width="1.000000e-02" stroke-miterlimit="10" cx="1857.1" cy="148.6" r="4.3"/>
<circle fill="#FFFFFF" stroke="#000000" stroke-width="1.000000e-02" stroke-miterlimit="10" cx="1633.1" cy="140.3" r="7"/>
<circle fill="#FFFFFF" stroke="#000000" stroke-width="1.000000e-02" stroke-miterlimit="10" cx="1630.4" cy="340.3" r="4.3"/>
</svg>
