<?xml version="1.0" encoding="UTF-8" standalone="no"?>
<!-- Created with Inkscape (http://www.inkscape.org/) -->

<svg
   xmlns:dc="http://purl.org/dc/elements/1.1/"
   xmlns:cc="http://creativecommons.org/ns#"
   xmlns:rdf="http://www.w3.org/1999/02/22-rdf-syntax-ns#"
   xmlns:svg="http://www.w3.org/2000/svg"
   xmlns="http://www.w3.org/2000/svg"
   xmlns:sodipodi="http://sodipodi.sourceforge.net/DTD/sodipodi-0.dtd"
   xmlns:inkscape="http://www.inkscape.org/namespaces/inkscape"
   width="210mm"
   height="297mm"
   viewBox="0 0 744.09448819 1052.3622047"
   id="svg2"
   version="1.1"
   inkscape:version="0.91 r13725"
   sodipodi:docname="regal_schild_freies_fach.svg">
  <defs
     id="defs4">
    <inkscape:perspective
       sodipodi:type="inkscape:persp3d"
       inkscape:vp_x="0 : 380.90848 : 1"
       inkscape:vp_y="0 : 1000 : 0"
       inkscape:vp_z="637.79529 : 380.90848 : 1"
       inkscape:persp3d-origin="318.89764 : 253.93899 : 1"
       id="perspective10" />
  </defs>
  <sodipodi:namedview
     id="base"
     pagecolor="#ffffff"
     bordercolor="#666666"
     borderopacity="1.0"
     inkscape:pageopacity="0.0"
     inkscape:pageshadow="2"
     inkscape:zoom="1.979899"
     inkscape:cx="110.56944"
     inkscape:cy="503.93614"
     inkscape:document-units="px"
     inkscape:current-layer="layer1"
     showgrid="false"
     inkscape:window-width="2560"
     inkscape:window-height="1368"
     inkscape:window-x="0"
     inkscape:window-y="35"
     inkscape:window-maximized="1" />
  <metadata
     id="metadata7">
    <rdf:RDF>
      <cc:Work
         rdf:about="">
        <dc:format>image/svg+xml</dc:format>
        <dc:type
           rdf:resource="http://purl.org/dc/dcmitype/StillImage" />
        <dc:title></dc:title>
      </cc:Work>
    </rdf:RDF>
  </metadata>
  <g
     inkscape:label="Layer 1"
     inkscape:groupmode="layer"
     id="layer1">
    <text
       sodipodi:linespacing="125%"
       id="text3529"
       y="402.96573"
       x="320.98138"
       style="font-style:normal;font-weight:normal;font-size:13.62146187px;line-height:125%;font-family:Sans;letter-spacing:0px;word-spacing:0px;fill:none;fill-opacity:1;stroke:#00ff00;stroke-width:0.7252453;stroke-opacity:1"
       xml:space="preserve"><tspan
         style="font-style:normal;font-variant:normal;font-weight:normal;font-stretch:normal;font-family:'Trebuchet MS';-inkscape-font-specification:'Trebuchet MS';fill:none;stroke:#00ff00;stroke-width:0.7252453;stroke-opacity:1"
         y="402.96573"
         x="320.98138"
         id="tspan3531"
         sodipodi:role="line" /></text>
    <text
       sodipodi:linespacing="125%"
       id="text3537"
       y="402.25406"
       x="328.86411"
       style="font-style:normal;font-weight:normal;font-size:20.3068676px;line-height:125%;font-family:Sans;letter-spacing:0px;word-spacing:0px;fill:none;fill-opacity:1;stroke:#00ff00;stroke-width:0.7252453;stroke-opacity:1"
       xml:space="preserve"><tspan
         y="402.25406"
         x="328.86411"
         id="tspan3539"
         sodipodi:role="line"
         style="stroke-width:0.7252453" /></text>
    <rect
       style="color:#000000;display:inline;overflow:visible;visibility:visible;opacity:1;fill:none;fill-opacity:1;fill-rule:evenodd;stroke:#000000;stroke-width:1.15400004;stroke-linecap:butt;stroke-linejoin:miter;stroke-miterlimit:4;stroke-dasharray:none;stroke-dashoffset:0;stroke-opacity:1;marker:none;enable-background:accumulate"
       id="rect4065"
       width="140.57828"
       height="328.57141"
       x="221.36549"
       y="293.54849" />
    <path
       style="color:#000000;display:inline;overflow:visible;visibility:visible;opacity:1;fill:none;fill-opacity:1;fill-rule:evenodd;stroke:#000000;stroke-width:1.15400004;stroke-linecap:butt;stroke-linejoin:miter;stroke-miterlimit:4;stroke-dasharray:none;stroke-dashoffset:0;stroke-opacity:1;marker:none;enable-background:accumulate"
       d="m 305.25083,322.38089 a 13.596229,13.596229 0 0 1 -13.59623,13.59623 13.596229,13.596229 0 0 1 -13.59623,-13.59623 13.596229,13.596229 0 0 1 13.59623,-13.59623 13.596229,13.596229 0 0 1 13.59623,13.59623 z"
       id="path5008" />
    <g
       id="g4994"
       transform="matrix(0.65251608,0,0,0.65251608,233.85302,348.58745)">
      <path
         inkscape:connector-curvature="0"
         d="m 149.88213,13.092058 -20.70064,20.70046 m 1.71151,1.356194 20.93353,-20.933363 m 3.80005,-0.732337 -23.03211,23.031921 m 1.68954,1.378167 23.4818,-23.481601 m -1.12631,4.193973 -20.76842,20.768251 m 1.58696,1.480733 17.35466,-17.354511 m 1.9589,1.108793 -17.84124,17.84109 m 1.47234,1.595372 18.10121,-18.10108 m 0.58015,2.48755 -5.03449,5.034446 m -12.32653,12.326427 9.00118,-9.001118 m 1.70349,1.364226 -9.40009,9.400013 m 1.30457,1.76312 11.35418,-11.354086 m 4.43886,-1.371141 -14.48847,14.488347"
         style="fill:none;stroke:#00ff00;stroke-width:0.58895892;stroke-miterlimit:4;stroke-dasharray:none;stroke-opacity:1"
         id="path4114" />
      <path
         inkscape:connector-curvature="0"
         d="m 30.193081,22.343496 -7.627506,7.627442 M 13.516057,42.088068 42.071261,13.533097 M 49.049839,9.6222596 9.5994506,49.072326 M 6.8853796,54.854059 54.792136,6.9476936 M 59.718017,5.0895376 5.1359566,59.671151 M 3.6743996,64.200379 64.172216,3.7030566 M 68.366492,2.5765012 2.6230326,68.319422 m -0.8647,3.932376 L 72.221264,1.7894431 M 75.89284,1.1855811 1.2103756,75.867436 M 0.66241857,79.483073 79.450047,0.69608862 M 82.723554,0.49029082 51.677553,31.536039 m 7.218294,-4.15055 27.101216,-27.10099488 m 3.158651,-0.09094 L 64.416344,24.932724 M 69.095655,23.321135 92.223427,0.19355412 m 3.06771,0 L 73.288971,22.195537 m 3.885715,-0.818 21.184151,-21.18398288 m 3.067713,0 L 80.764223,20.855714 M 84.091389,20.596258 104.49426,0.19355392 m 3.06772,0 L 87.326953,20.428405 m 3.011634,0.05608 20.291083,-20.29093118 m 3.06772,0 L 93.246327,20.644455 m 2.83093,0.23677 L 116.7651,0.19355382 m 3.06772,0 L 98.750637,21.275556 m 2.663763,0.403941 21.48611,-21.48594318 m 3.06772,0 -22.08076,22.08058318 m 2.47306,0.594641 22.67541,-22.67522418 m 3.0677,0 -23.38076,23.38057918 m 2.29624,0.771458 24.15223,-24.15203718 m 3.06771,0 -24.937,24.93679718 m 2.13557,0.932142 25.86915,-25.86893918 m 3.06769,0 -26.80129,26.80107818 m 2.06981,0.997889 27.7992,-27.79896718 m 3.06771,0 -28.88132,28.88108318 m 1.98559,1.082115 29.96343,-29.96319818 m 3.06771,0 -31.14796,31.14771218 m 1.84207,1.225628 32.31857,-32.31831398 m 2.77177,0.2959462 -8.45886,8.45878838 m 3.23967,-0.171966 7.59683,-7.5967614 m 2.16731,0.900395 -7.16069,7.1606304 m 2.07616,0.9915494 7.07422,-7.0741664 m 1.69354,1.374154 -7.30947,7.3094034 m 0.6931,2.374595 8.18097,-8.1808894 m 1.39824,1.669438 -10.88039,10.8803144 m -0.69515,3.762818 12.71259,-12.7124764 m 0.9756,2.0920834 -12.18003,12.179935 m 1.08476,1.982929 11.85028,-11.850169 m 0.35629,2.711391 -11.72494,11.724846 m -0.85593,3.923599 12.6985,-12.698396 m 0,3.067684 -30.1931,30.192852 m 1.08151,1.986189 29.11159,-29.111356 m 0,3.067682 -28.03009,28.029862 m 1.08151,1.986188 26.94858,-26.948366 m 0,3.067686 -26.04298,26.042767 m 0.85032,2.217367 25.19266,-25.192451 m 0,3.067684 -24.34234,24.342137 m 0.85033,2.217369 23.49201,-23.491823 m 0,3.067684 -22.87729,22.877099 m 0.59816,2.46953 22.27913,-22.278944 m 0,3.067683 -21.68097,21.68079 m 0.49558,2.572118 21.18539,-21.185223 m 0,3.067684 -20.87891,20.87874 m 0.30648,2.761199 20.57243,-20.572257 m 0,3.067686 -20.29239,20.292226 m -0.0551,3.122762 20.34747,-20.347304 m 0,3.067683 -20.40256,20.402383 m -0.13253,3.200211 20.53509,-20.53491 m 0,3.067684 -21.0784,21.078216 m -0.54332,3.610998 21.62172,-21.62153 m 0,3.067685 -22.60665,22.606455 m -1.20429,4.27196 23.81094,-23.810731 m -0.0807,3.148356 -25.84603,25.845825 m -3.21807,6.28572 28.90079,-28.900548 m -0.16331,3.231 -36.37974,36.379428 m -39.79101,42.85837 75.70945,-75.70883 m -0.55307,3.62075 -71.53559,71.53501 m 3.79482,-0.72711 67.01365,-67.01311 m -1.06285,4.13053 -61.82025,61.81975 m 4.33719,-1.26946 56.2136,-56.21315 m -1.77262,4.84029 -49.60065,49.60025 m 5.50377,-2.43605 41.6608,-41.66046 m -3.44022,6.50788 -31.71264,31.71239 m 9.45959,-6.39184 15.86117,-15.86103"
         style="fill:none;stroke:#00ff00;stroke-width:0.58895892;stroke-miterlimit:4;stroke-dasharray:none;stroke-opacity:1"
         id="path4109" />
      <path
         id="path3040"
         style="fill:none;stroke:#00ff00;stroke-width:0.58895892;stroke-miterlimit:4;stroke-dasharray:none;stroke-opacity:1"
         d="m 68.501255,47.37472 -5.863047,5.862999 m -0.411412,3.479094 9.244964,-9.244888 m 2.918345,0.149362 -12.254833,12.254732 M 62.091782,62.98718 76.92421,48.154872 m 2.257037,0.810667 -17.13294,17.1328 m -0.03211,3.09979 18.921222,-18.921067 m 0.53491,2.532786 -19.448121,19.447962 m 0.008,3.059679 19.592424,-19.592264 M 84.870536,55.547037 62.040217,78.37717 m 0.008,3.05968 27.74595,-27.745713 m 5.10252,-2.034809 -32.840464,32.840201 m 0.008,3.05968 37.795524,-37.795218 M 104.4973,48.191158 62.072225,90.615889 M 87.606029,68.149994 108.75252,47.003687 M 82.167809,73.58817 62.080244,93.675572 M 92.026377,66.797361 112.53726,46.28666 M 82.167809,76.655854 62.088249,96.735252 M 95.908997,65.982462 115.97308,45.918545 M 82.167809,79.723538 62.096253,99.794932 M 99.576077,65.383095 119.1329,45.82644 M 82.167809,82.791222 62.104257,102.85461 M 103.19173,64.835163 121.80086,46.226178 M 82.190436,85.83628 62.112263,105.91429 M 106.78026,64.314345 123.6027,47.492038 M 82.235029,88.859371 62.120265,108.97397 M 110.39748,63.764829 124.57639,49.586056 M 82.279622,91.882462 62.128269,112.03365 M 113.90577,63.324253 124.85187,52.378244 M 82.324215,94.905552 62.175216,115.05439 m 55.154454,-52.086324 7.55428,-7.55421 M 82.368808,97.928642 62.211696,118.08559 m 58.557874,-55.489712 3.80206,-3.802031 M 82.413403,100.95173 62.248174,121.11681 m 0.165455,2.90223 20.044367,-20.04422 m 0.0446,3.0231 -19.914815,19.91465 m 0.420197,2.6475 19.539211,-19.53906 m 0.04459,3.02309 -18.983185,18.98303 m 1.477253,1.59044 17.550525,-17.55038 m 0.03243,3.03526 -15.111851,15.11172 m 2.867056,0.20066 12.244795,-12.2447 m -0.03876,3.10643 -9.058563,9.0585 m 3.488046,-0.42034 5.365337,-5.36529"
         inkscape:connector-curvature="0" />
      <path
         sodipodi:nodetypes="cccccccccccccccccccccccccccscc"
         inkscape:connector-curvature="0"
         id="path3024-5"
         style="font-style:normal;font-variant:normal;font-weight:normal;font-stretch:normal;font-size:163.52767944px;line-height:125%;font-family:Cagliostro;-inkscape-font-specification:Cagliostro;letter-spacing:0px;word-spacing:0px;fill:none;stroke:#00ff00;stroke-width:0.58895892;stroke-miterlimit:4;stroke-dasharray:none;stroke-opacity:1"
         d="M 62.131043,113.0939 62.010428,66.986798 c 0.166975,-1.065441 0.02782,2.495367 0.02783,-0.168474 -2.1e-5,-2.663697 -0.05542,-2.036429 0.111592,-7.985612 0.111302,-2.456515 -0.02679,-4.528336 0.771094,-7.221787 1.001948,-3.329627 2.129824,-4.268283 5.97074,-4.26837 8.349725,8.7e-5 12.524603,1.465161 12.524644,4.395221 -4.1e-5,2.264284 0.08345,3.862545 0.250494,4.794785 1.001928,7.9e-5 5.844785,-1.797965 14.528575,-5.394133 8.683703,-3.596002 16.114993,-5.394045 22.293883,-5.394133 2.50485,8.8e-5 4.17479,0.532841 5.00986,1.59826 1.00189,0.932407 1.50287,3.196608 1.50296,6.792613 -9e-5,3.596165 -0.58457,6.326529 -1.75346,8.191093 -1.00204,0.13326 -2.83898,0.333042 -5.51084,0.599348 -2.505,0.266449 -4.42545,0.466231 -5.76133,0.599348 -1.16904,0.133259 -2.92249,0.399636 -5.26035,0.799132 -2.338,0.266447 -4.17495,0.532822 -5.51084,0.79913 -1.336033,0.133256 -3.005973,0.399634 -5.009883,0.799131 -1.83698,0.266445 -3.42344,0.599416 -4.75936,0.998914 -1.16901,0.399633 -2.421475,0.799198 -3.757388,1.198697 -2.671969,0.799195 -4.508915,1.864703 -5.510841,3.196523 l 0,12.985878 0.500986,33.963068 0,2.99676 c -4.4e-5,0.53275 -4.4e-5,1.66486 0,3.39629 -4.4e-5,1.59827 -0.08354,2.93016 -0.250494,3.99566 -4.3e-5,1.06551 -0.334034,2.13102 -1.001972,3.19652 -1.336003,1.73144 -4.842899,2.59718 -10.520699,2.59718 -5.51087,0 -5.294826,-0.54416 -6.296774,-1.07693 -2.003962,-1.0655 -2.44928,-7.79258 -2.449261,-20.44549" />
      <path
         inkscape:connector-curvature="0"
         style="fill:none;stroke:#00ff00;stroke-width:0.58895892;stroke-miterlimit:4;stroke-dasharray:none;stroke-opacity:1"
         d="m 89.045143,20.413323 c 16.459057,0.139051 32.730277,6.458871 45.073097,17.325129 18.47574,15.968177 26.26483,42.493502 21.04208,66.191768 -4.56486,22.06719 -21.62853,40.4866 -42.54664,48.36134 -21.707883,8.76055 -47.784243,4.55075 -66.046687,-9.94292 C 26.296351,126.85839 16.492771,99.368122 21.645333,74.452655 27.768186,44.262669 56.581638,20.565448 87.452219,20.421902 c 0.531205,-0.0085 1.061995,-0.01306 1.592924,-0.0086 z"
         id="path3017" />
      <path
         inkscape:connector-curvature="0"
         d="M 30.713545,52.499877 0.48586957,82.727304 m -0.161988,3.22967 L 26.783501,59.497572 M 24.464264,64.884474 0.21972157,89.128818 m 0.147601,2.920085 22.52145343,-22.52127 m -1.0361,4.103775 -21.33775243,21.337574 m 0.171738,2.89595 L 21.147877,77.403885 M 20.684714,80.934728 1.0931606,100.52612 m 0.4065,2.66119 L 20.396052,84.291071 M 20.323012,87.431804 1.9061676,105.8485 m 0.582763,2.48492 17.8893884,-17.889238 m 0.135887,2.9318 -17.3974604,17.397328 m 0.627813,2.43986 17.1670654,-17.166918 m 0.399064,2.66862 -16.8750184,16.874888 m 0.822308,2.24538 L 21.70975,101.3835 m 0.535543,2.53215 -16.1650074,16.16487 m 0.822308,2.24539 16.0326874,-16.03256 m 0.689989,2.37769 -15.7760014,15.77588 m 0.99765,2.07005 15.4683394,-15.46823 m 0.847016,2.22069 -15.3177054,15.31758 m 0.9976514,2.07004 15.260399,-15.26028 m 0.940344,2.12735 -15.044887,15.04476 m 1.159586,1.90811 14.825645,-14.82552 m 1.033983,2.0337 -14.700041,14.69993 m 1.183703,1.88398 14.629806,-14.62968 m 1.161537,1.90616 -14.478685,14.47857 m 1.312655,1.75503 14.391602,-14.39148 m 1.257027,1.81067 -14.335972,14.33586 m 1.354113,1.71357 14.318623,-14.31851 m 1.349309,1.7184 -14.207262,14.20714 m 1.46067,1.60703 14.195058,-14.19494 m 1.448467,1.61922 -14.182854,14.18274 m 1.515349,1.55234 14.221167,-14.22104 m 1.562057,1.50563 -14.176184,14.17607 m 1.607039,1.46066 14.216925,-14.21681 m 1.678935,1.38877 -14.288822,14.2887 m 1.676173,1.39152 14.366759,-14.36663 m 1.817284,1.25041 -14.428992,14.42887 M 36.69779,160.02 51.189012,145.5289 m 1.817284,1.25041 -14.553454,14.55334 m 1.845302,1.2224 14.652725,-14.65262 m 2.034348,1.03336 -14.77895,14.77883 m 1.908124,1.15958 14.905173,-14.90506 m 2.034348,1.03336 -15.031398,15.03127 m 2.032844,1.03486 15.207162,-15.20704 m 2.263113,0.8046 -15.400216,15.40008 m 2.070058,0.99765 15.593271,-15.59316 m 2.295149,0.77256 -15.811719,15.81159 m 2.245401,0.82229 16.083357,-16.08321 m 2.517038,0.55066 -16.354995,16.35487 m 2.245401,0.8223 16.626631,-16.6265 m 2.73733,0.33038 -17.036538,17.0364 m 2.439894,0.6278 17.412797,-17.41265 m 2.816153,0.25156 -17.789054,17.7889 m 2.439895,0.62782 18.410835,-18.41069 m 3.194176,-0.12648 -18.954709,18.95457 m 2.661211,0.40649 19.487698,-19.48754 m 3.67512,-0.6074 -20.501608,20.50144 m 2.83051,0.2372 21.386941,-21.38678 m 4.21124,-1.14352 -22.678073,22.67789 m 2.920109,0.1476 24.285014,-24.28482 m 5.33135,-2.26361 -26.522043,26.52181 m 3.23103,-0.16332 29.731593,-29.73135 m 10.70153,-7.63375 -37.202093,37.20178"
         style="fill:none;stroke:#00ff00;stroke-width:0.58895892;stroke-miterlimit:4;stroke-dasharray:none;stroke-opacity:1"
         id="path4104" />
      <path
         inkscape:connector-curvature="0"
         style="fill:none;stroke:#00ff00;stroke-width:0.58895892;stroke-miterlimit:4;stroke-dasharray:none;stroke-opacity:1"
         d="M 87.443653,0.19355062 C 39.176162,0.80563782 0.19215257,40.171916 0.19215257,88.583385 c 0,48.792655 39.59749443,88.389815 88.39053643,88.389815 48.793041,0 88.390521,-39.59716 88.390511,-88.389815 0,-0.381207 -0.004,-0.758972 -0.0109,-1.139035 l 0,-69.651623 C 176.76866,8.0902346 168.87468,0.26664342 159.1426,0.19355062 l -70.559961,0 c -0.134708,0 -0.268412,0 -0.402518,0 -0.245385,0 -0.490766,-0.00315 -0.736518,0 z"
         id="path3021" />
      <path
         sodipodi:nodetypes="ccssccccscccccccccccscsscccsccccccccccccccc"
         inkscape:connector-curvature="0"
         id="text3841"
         d="m 156.34194,8.7291746 c -1.43767,2.9e-5 -2.84664,0.278832 -4.23671,0.813443 -0.67406,0.251129 -1.20652,0.4927844 -1.66079,0.8134424 -0.45428,0.32066 -0.98293,0.824057 -0.98293,1.626886 0,0.719969 0.43947,1.258779 0.88125,1.626885 l 0.034,0.0339 0.034,0.0339 c 0.38645,0.267575 0.64738,0.542411 1.38964,0.542295 0.40441,6.3e-5 0.4791,-0.07025 0.77955,-0.135573 0.30046,-0.06531 0.69356,-0.147957 1.18629,-0.271148 0.93326,-0.233292 1.6171,-0.338925 1.79637,-0.338935 1.02397,2e-5 1.58021,0.251541 1.93194,0.576189 0.40725,0.375941 0.57618,0.736172 0.57619,1.355738 -1e-5,0.694826 -0.17687,1.297226 -0.5423,1.931926 l 0,0.0339 c -0.38681,0.709148 -0.95074,1.480187 -1.66079,2.304753 l 0,0.0339 c -0.74001,0.888 -1.19817,1.475918 -1.49132,1.931926 l -0.23726,0.338935 0.034,0.406721 c 0.087,0.869497 0.56435,1.082285 0.91513,1.321844 0.35078,0.239559 0.76605,0.443021 1.28796,0.677869 2.01034,0.88879 2.74538,1.976569 2.74539,3.829959 0,1.896533 -0.53996,3.097005 -1.69468,3.999426 -1.15473,0.902421 -3.08695,1.500798 -5.82973,1.592991 l -0.88123,0.0339 -0.23725,0.88123 c -0.0798,0.319142 -0.10164,0.643378 -0.10164,0.982911 0,0.737061 0.39163,1.240406 0.81345,1.694671 0.53343,0.571522 1.31736,0.949014 2.10141,0.949016 0.005,-9.67e-4 0.0339,0 0.0339,0 3.17639,-0.103294 5.94752,-0.972432 8.20228,-2.609794 2.34351,-1.681803 3.59273,-4.218093 3.59274,-7.219304 -1e-5,-1.624649 -0.48311,-3.140875 -1.42354,-4.406147 -0.004,-0.0068 0.004,-0.02708 0,-0.0339 l -0.034,0 c -0.79567,-1.106078 -1.84153,-2.013634 -3.08434,-2.711476 0.44301,-0.431479 0.88018,-0.871134 1.28796,-1.321844 0.55693,-0.644862 1.04509,-1.461478 1.49133,-2.406434 0.47257,-1.028544 0.74565,-2.074767 0.74566,-3.118196 -1e-5,-1.763561 -0.84117,-3.352641 -2.30477,-4.338361 -1.44649,-1.0036374 -3.29983,-1.4573904 -5.45689,-1.4574184 z"
         style="color:#000000;font-style:normal;font-variant:normal;font-weight:normal;font-stretch:normal;font-size:33.60087967px;line-height:125%;font-family:'Varela Round';-inkscape-font-specification:'Varela Round';text-indent:0;text-align:start;text-decoration:none;text-decoration-line:none;letter-spacing:0px;word-spacing:0px;text-transform:none;direction:ltr;block-progression:tb;writing-mode:lr-tb;baseline-shift:baseline;text-anchor:start;display:inline;overflow:visible;visibility:visible;fill:none;stroke:#00ff00;stroke-width:0.58895892;stroke-miterlimit:4;stroke-dasharray:none;stroke-opacity:1;marker:none;enable-background:accumulate" />
    </g>
    <g
       transform="scale(1.0355075,0.96571006)"
       style="font-style:normal;font-variant:normal;font-weight:normal;font-stretch:normal;font-size:13.71307945px;line-height:100%;font-family:Ubuntu;-inkscape-font-specification:'Ubuntu, Normal';text-align:start;letter-spacing:5.66350174px;word-spacing:0px;writing-mode:lr-tb;text-anchor:start;fill:none;fill-opacity:1;stroke:#00ff00;stroke-width:0.99999994px;stroke-linecap:butt;stroke-linejoin:miter;stroke-opacity:1"
       id="text4980">
      <path
         d="m 223.20422,520.64843 3.36313,0.0309 c 2.00554,0.0926 1.97469,0.15427 2.06725,-2.49921 l 0,-5.43038 c -0.0309,-0.92563 0.21598,-1.4193 0.98734,-1.60443 l 7.03481,0 c 1.3576,0.15427 1.3576,0 1.48101,-2.46835 -0.12341,-2.28323 -0.0926,-2.31409 -1.35759,-2.34494 l -7.03481,0 c -1.17247,0.0617 -1.14161,0.0308 -1.11076,-2.34494 0.0309,-1.4193 -0.0309,-1.4193 1.11076,-1.48101 l 7.86788,0 c 1.63528,-0.0926 1.57358,-0.0308 1.72785,-1.97468 l 0,-2.34494 c 0,-1.63528 -0.0617,-1.48101 -1.66614,-1.48101 l -13.85364,-0.12342 c -2.25237,0.12342 -2.28323,-0.0308 -2.22152,2.34494 l 0,19.99366 c -0.0617,1.54273 -0.0309,1.78956 1.60443,1.72785 z"
         style="font-style:normal;font-variant:normal;font-weight:normal;font-stretch:normal;font-size:30.85442734px;font-family:potama;-inkscape-font-specification:potama;text-align:center;letter-spacing:0px;text-anchor:middle;fill:none;stroke:#00ff00;stroke-width:0.99999994px;stroke-opacity:1"
         id="path6798" />
      <path
         d="m 243.99191,520.77185 2.99288,0 c 1.69699,0.0617 1.72785,0 1.7587,-1.69699 l 0.0309,-11.07674 c 0.0309,-2.34494 0.12341,-3.60997 1.17246,-4.72073 0.6788,-0.70965 1.0182,-1.14161 2.99288,-1.17247 3.54826,-0.0308 4.35048,2.62263 4.19621,4.04193 -0.24684,2.15981 -1.94383,2.83861 -3.67168,2.99288 -1.60443,-0.24683 -1.26503,1.0182 -1.32674,1.91298 l 0,1.82041 c -0.0617,1.26503 1.20332,2.8386 2.96202,5.80063 0.98735,1.7587 0.80222,2.31408 2.46836,2.0981 l 5.18354,0 c 0.61709,-0.0926 0.95649,-0.21598 -0.3394,-2.28323 -1.29588,-2.4375 -3.45569,-5.58465 -3.23971,-5.73892 1.01819,-1.0182 2.65348,-2.25237 3.20886,-3.4557 0.92563,-2.00553 0.83307,-5.12183 0.18513,-7.18908 -1.0182,-3.45569 -4.68988,-4.96756 -7.03481,-5.2144 -1.04905,-0.0926 -3.57912,-0.33939 -5.98576,0 -4.84415,0.70966 -7.12738,4.01108 -7.15823,8.85522 l 0,12.68117 c -0.0309,2.34494 -0.0309,2.34494 1.60443,2.34494 z"
         style="font-style:normal;font-variant:normal;font-weight:normal;font-stretch:normal;font-size:30.85442734px;font-family:potama;-inkscape-font-specification:potama;text-align:center;letter-spacing:0px;text-anchor:middle;fill:none;stroke:#00ff00;stroke-width:0.99999994px;stroke-opacity:1"
         id="path6800" />
      <path
         d="m 282.98178,520.77185 c 1.78956,-0.0308 1.85127,-0.0308 1.85127,-2.96202 0.0308,-2.46836 0.0617,-2.46836 -1.82042,-2.4375 l -9.13291,0 c -1.14161,-0.0309 -1.11075,-0.0309 -1.01819,-2.25238 0,-1.57357 0.0617,-1.57357 1.11076,-1.60443 l 6.66455,0 c 1.38845,-0.0617 1.38845,-0.0617 1.45016,-2.56092 0.0617,-2.22151 0,-2.25237 -1.38845,-2.28322 l -6.72626,0.0308 c -1.04905,0 -1.11076,0 -1.11076,-1.72785 -0.0309,-2.56091 0.0308,-2.65348 1.0799,-2.62262 0,0 8.39241,0 8.88608,0 2.00554,0.0308 2.03639,-0.0309 2.12895,-2.4375 -0.0308,-3.20886 0,-3.20886 -2.0981,-3.20886 l -14.43987,0 c -2.34494,-0.0309 -2.40664,-0.15427 -2.34494,2.49921 l -0.12341,19.2223 c 0,2.19067 0,2.34494 2.22152,2.34494 l 14.81012,0 z"
         style="font-style:normal;font-variant:normal;font-weight:normal;font-stretch:normal;font-size:30.85442734px;font-family:potama;-inkscape-font-specification:potama;text-align:center;letter-spacing:0px;text-anchor:middle;fill:none;stroke:#00ff00;stroke-width:0.99999994px;stroke-opacity:1"
         id="path6802" />
      <path
         d="m 289.27416,520.64843 4.28876,0 c 1.48101,0.0617 1.54272,0.0617 1.60443,-1.48101 l -0.0308,-20.27136 c -0.0309,-2.0981 -0.40111,-2.19066 -2.06725,-2.19066 l -2.96202,0 c -2.0364,0.0308 -2.25238,0.0926 -2.09811,2.34493 l 0,20.11709 c -0.0617,1.45016 0,1.45016 1.26504,1.48101 z"
         style="font-style:normal;font-variant:normal;font-weight:normal;font-stretch:normal;font-size:30.85442734px;font-family:potama;-inkscape-font-specification:potama;text-align:center;letter-spacing:0px;text-anchor:middle;fill:none;stroke:#00ff00;stroke-width:0.99999994px;stroke-opacity:1"
         id="path6804" />
      <path
         d="m 315.22225,520.77185 c 1.78956,-0.0308 1.85127,-0.0308 1.85127,-2.96202 0.0309,-2.46836 0.0617,-2.46836 -1.82041,-2.4375 l -9.13291,0 c -1.14162,-0.0309 -1.11076,-0.0309 -1.0182,-2.25238 0,-1.57357 0.0617,-1.57357 1.11076,-1.60443 l 6.66455,0 c 1.38845,-0.0617 1.38845,-0.0617 1.45016,-2.56092 0.0617,-2.22151 0,-2.25237 -1.38845,-2.28322 l -6.72626,0.0308 c -1.04905,0 -1.11076,0 -1.11076,-1.72785 -0.0309,-2.56091 0.0309,-2.65348 1.0799,-2.62262 0,0 8.39241,0 8.88608,0 2.00554,0.0308 2.03639,-0.0309 2.12895,-2.4375 -0.0308,-3.20886 0,-3.20886 -2.0981,-3.20886 l -14.43987,0 c -2.34493,-0.0309 -2.40664,-0.15427 -2.34493,2.49921 l -0.12342,19.2223 c 0,2.19067 0,2.34494 2.22152,2.34494 l 14.81012,0 z"
         style="font-style:normal;font-variant:normal;font-weight:normal;font-stretch:normal;font-size:30.85442734px;font-family:potama;-inkscape-font-specification:potama;text-align:center;letter-spacing:0px;text-anchor:middle;fill:none;stroke:#00ff00;stroke-width:0.99999994px;stroke-opacity:1"
         id="path6806" />
      <path
         d="m 329.87618,520.77185 c 1.7587,0.0617 3.45569,0 5.06012,-0.3394 1.57358,-0.24683 3.08545,-0.83307 4.28877,-1.97468 1.04905,-0.98734 2.03639,-1.94383 2.4375,-4.5356 0.12342,-0.89478 0.0617,-1.85127 -0.18513,-2.65348 -0.24683,-0.83307 -0.52452,-1.26503 -1.23418,-2.22152 -1.26503,-1.697 -3.54826,-2.19067 -5.64636,-2.4375 -2.12895,-0.15427 -4.62816,-0.77136 -6.07832,-1.38845 -0.86392,-0.37025 -1.57357,-1.54272 -0.86392,-3.08544 0.3394,-0.70966 1.11076,-0.98735 2.59177,-1.23418 1.72785,-0.0926 3.42484,0.15427 3.57911,2.71519 0.12342,0.70965 0.52453,1.11076 2.0981,0.98734 l 3.33228,-0.24683 c 1.14162,-0.0617 1.7587,-0.74051 1.72785,-1.32675 -0.52453,-3.64082 -4.16535,-5.6155 -5.70807,-5.86234 -3.76424,-0.58623 -6.44857,-0.67879 -9.04035,-0.15427 -1.4193,0.27769 -2.77689,0.89478 -3.94936,1.697 -1.26503,0.89477 -1.94383,2.03639 -2.15981,3.30142 -0.15427,0.89478 -0.61709,3.57911 1.14161,4.99842 1.7587,1.4193 4.04193,2.03639 6.14003,2.68433 2.12896,0.64794 4.22706,1.54272 6.17089,2.59177 1.20332,0.98734 0.70965,2.59177 0.24683,3.17801 -0.98734,1.26503 -2.86946,0.89478 -3.60997,0.64794 -0.77136,-0.21598 -1.45015,-0.55538 -2.03639,-1.04905 -0.92563,-0.89478 -1.51186,-1.85126 -1.69699,-3.08544 0,0 -0.52453,-0.61709 -1.91298,-0.46282 l -2.71518,0.0309 c -1.66614,0.0617 -1.85127,0.58623 -1.91298,1.66614 -0.0617,0.95648 0.0926,1.82041 0.43196,2.68433 1.0182,2.80775 5.2144,4.65902 9.50317,4.875 z"
         style="font-style:normal;font-variant:normal;font-weight:normal;font-stretch:normal;font-size:30.85442734px;font-family:potama;-inkscape-font-specification:potama;text-align:center;letter-spacing:0px;text-anchor:middle;fill:none;stroke:#00ff00;stroke-width:0.99999994px;stroke-opacity:1"
         id="path6808" />
      <path
         d="m 234.47332,551.50286 3.36313,0.0308 c 2.00554,0.0926 1.97469,0.15428 2.06725,-2.4992 l 0,-5.43038 c -0.0309,-0.92564 0.21598,-1.41931 0.98734,-1.60443 l 7.03481,0 c 1.35759,0.15427 1.35759,0 1.48101,-2.46836 -0.12342,-2.28323 -0.0926,-2.31408 -1.35759,-2.34493 l -7.03481,0 c -1.17247,0.0617 -1.14162,0.0308 -1.11076,-2.34494 0.0309,-1.4193 -0.0309,-1.4193 1.11076,-1.48101 l 7.86788,0 c 1.63528,-0.0926 1.57357,-0.0309 1.72785,-1.97469 l 0,-2.34493 c 0,-1.63529 -0.0617,-1.48102 -1.66614,-1.48102 l -13.85364,-0.12341 c -2.25238,0.12341 -2.28323,-0.0309 -2.22152,2.34493 l 0,19.99367 c -0.0617,1.54272 -0.0309,1.78956 1.60443,1.72785 z"
         style="font-style:normal;font-variant:normal;font-weight:normal;font-stretch:normal;font-size:30.85442734px;font-family:potama;-inkscape-font-specification:potama;text-align:center;letter-spacing:0px;text-anchor:middle;fill:none;stroke:#00ff00;stroke-width:0.99999994px;stroke-opacity:1"
         id="path6810" />
      <path
         d="m 255.26101,551.62628 2.34493,0 c 1.32674,0.12342 1.38845,0.0926 2.09811,-2.0981 l 3.82594,-10.73734 c 1.07991,-3.54826 2.09811,-3.39399 3.08545,0 l 0.86392,2.71519 c 0.55538,1.7587 0.46282,1.82041 -0.49367,1.85126 l -2.71519,0 c -1.0182,-0.0308 -1.32674,-0.0308 -1.60443,2.46836 0,0.55538 -0.64794,2.06724 0.74051,1.97468 l 3.70253,0 c 2.46835,0 2.56092,0 2.71519,1.11076 l 0.49367,1.23418 c 0.3394,1.4193 0.37025,1.60443 1.48101,1.48101 l 2.34494,0 c 2.7769,0.0617 2.7769,-0.0926 1.97468,-2.22152 L 268.83696,528.794 c -0.52453,-1.29588 -0.6788,-1.26503 -2.22152,-1.23418 l -3.42484,0 c -0.86393,-0.12341 -1.0182,-0.12341 -1.51187,1.11076 l -8.14557,20.73418 c -0.83307,2.28323 -0.89478,2.34494 1.72785,2.22152 z"
         style="font-style:normal;font-variant:normal;font-weight:normal;font-stretch:normal;font-size:30.85442734px;font-family:potama;-inkscape-font-specification:potama;text-align:center;letter-spacing:0px;text-anchor:middle;fill:none;stroke:#00ff00;stroke-width:0.99999994px;stroke-opacity:1"
         id="path6812" />
      <path
         d="m 304.2617,536.47675 c -0.12342,-2.56091 -0.74051,-3.82594 -2.06725,-5.2761 -2.15981,-2.37579 -5.43038,-3.60997 -9.62658,-3.60997 -3.82595,0 -7.12738,1.0182 -9.37975,2.86946 -2.59177,2.12896 -3.94936,5.30696 -3.94936,9.04035 0,3.67167 1.35759,6.88054 3.79509,8.94778 2.31408,1.97469 5.67721,3.02374 9.65744,3.02374 3.94936,0 7.21993,-0.95649 9.13291,-2.99288 1.45015,-1.54273 2.15981,-2.96203 2.71519,-5.33782 0.0926,-1.69699 -0.37026,-2.03639 -3.36314,-1.82041 -2.53006,-0.12342 -3.5174,-0.0617 -3.42484,0.95649 -0.15427,0.70965 -0.3394,1.45015 -0.89478,1.94383 -0.95648,0.86392 -2.56091,1.4193 -4.35047,1.4193 -4.07279,0 -6.47943,-2.46836 -6.47943,-6.14003 0,-3.76424 2.31408,-5.64636 6.2943,-5.64636 2.80776,0 4.62817,1.35759 5.2144,3.11629 -0.12342,0.98735 1.48101,1.29589 3.57911,1.26504 2.93117,-0.0309 3.33228,-0.74051 3.14716,-1.75871 z"
         style="font-style:normal;font-variant:normal;font-weight:normal;font-stretch:normal;font-size:30.85442734px;font-family:potama;-inkscape-font-specification:potama;text-align:center;letter-spacing:0px;text-anchor:middle;fill:none;stroke:#00ff00;stroke-width:0.99999994px;stroke-opacity:1"
         id="path6814" />
      <path
         d="m 313.15115,551.62628 c 1.57357,-0.0617 1.57357,-0.21598 1.60443,-2.0981 l 0,-5.06013 c -0.12342,-1.48101 -0.0309,-1.78956 1.35759,-1.85126 l 5.18354,0 c 1.38845,0.0926 1.32674,0 1.48102,2.22151 l 0,4.93671 c 0.0926,2.06725 0,1.7587 2.22152,1.72785 l 3.08544,0 c 1.7587,0.0617 1.82041,-0.37025 1.85126,-2.46835 l 0,-18.26582 c -0.0926,-3.1163 -0.12341,-3.36314 -1.85126,-3.33228 l -3.08544,0 c -2.12896,0.0617 -2.12896,0.46281 -2.22152,1.85126 l 0,5.67722 c -0.0926,1.69699 -0.0617,1.69699 -1.48102,1.72785 l -4.56645,0 c -2.12896,0.0617 -2.03639,-0.0926 -1.97468,-1.72785 l 0,-5.92405 c -0.0309,-1.32674 0.0308,-1.48102 -1.72785,-1.48102 l -3.4557,0 c -2.12895,-0.0617 -2.15981,0 -2.0981,1.97469 l 0.12342,19.87025 c -0.0926,1.88212 0.24683,2.12895 1.11076,2.22152 l 4.44304,0 z"
         style="font-style:normal;font-variant:normal;font-weight:normal;font-stretch:normal;font-size:30.85442734px;font-family:potama;-inkscape-font-specification:potama;text-align:center;letter-spacing:0px;text-anchor:middle;fill:none;stroke:#00ff00;stroke-width:0.99999994px;stroke-opacity:1"
         id="path6816" />
    </g>
    <g
       style="font-style:normal;font-variant:normal;font-weight:normal;font-stretch:normal;font-size:20px;line-height:100%;font-family:Ubuntu;-inkscape-font-specification:'Ubuntu, Normal';text-align:start;letter-spacing:-2.40999985px;word-spacing:0px;writing-mode:lr-tb;text-anchor:start;fill:none;fill-opacity:1;stroke:#00ff00;stroke-width:1px;stroke-linecap:butt;stroke-linejoin:miter;stroke-opacity:1"
       id="text4986">
      <path
         d="m 236.0112,555.21423 q 0.24,0 0.54,0.04 0.32,0.02 0.62,0.08 0.3,0.04 0.54,0.1 0.26,0.04 0.38,0.08 l -0.32,1.62 q -0.22,-0.08 -0.74,-0.18 -0.5,-0.12 -1.3,-0.12 -0.52,0 -1.04,0.12 -0.5,0.1 -0.66,0.14 l 0,8.74 -1.86,0 0,-9.96 q 0.66,-0.24 1.64,-0.44 0.98,-0.22 2.2,-0.22 z"
         style="text-align:center;letter-spacing:0px;text-anchor:middle;fill:none;stroke:#00ff00;stroke-opacity:1"
         id="path6731" />
      <path
         d="m 239.32557,560.65423 q 0,-1.38 0.4,-2.4 0.4,-1.04 1.06,-1.72 0.66,-0.68 1.52,-1.02 0.86,-0.34 1.76,-0.34 2.1,0 3.22,1.32 1.12,1.3 1.12,3.98 0,0.12 0,0.32 0,0.18 -0.02,0.34 l -7.12,0 q 0.12,1.62 0.94,2.46 0.82,0.84 2.56,0.84 0.98,0 1.64,-0.16 0.68,-0.18 1.02,-0.34 l 0.26,1.56 q -0.34,0.18 -1.2,0.38 -0.84,0.2 -1.92,0.2 -1.36,0 -2.36,-0.4 -0.98,-0.42 -1.62,-1.14 -0.64,-0.72 -0.96,-1.7 -0.3,-1 -0.3,-2.18 z m 7.14,-1.02 q 0.02,-1.26 -0.64,-2.06 -0.64,-0.82 -1.78,-0.82 -0.64,0 -1.14,0.26 -0.48,0.24 -0.82,0.64 -0.34,0.4 -0.54,0.92 -0.18,0.52 -0.24,1.06 l 5.16,0 z"
         style="text-align:center;letter-spacing:0px;text-anchor:middle;fill:none;stroke:#00ff00;stroke-opacity:1"
         id="path6733" />
      <path
         d="m 253.49745,564.49423 q 1.14,0 1.68,-0.3 0.56,-0.3 0.56,-0.96 0,-0.68 -0.54,-1.08 -0.54,-0.4 -1.78,-0.9 -0.6,-0.24 -1.16,-0.48 -0.54,-0.26 -0.94,-0.6 -0.4,-0.34 -0.64,-0.82 -0.24,-0.48 -0.24,-1.18 0,-1.38 1.02,-2.18 1.02,-0.82 2.78,-0.82 0.44,0 0.88,0.06 0.44,0.04 0.82,0.12 0.38,0.06 0.66,0.14 0.3,0.08 0.46,0.14 l -0.34,1.6 q -0.3,-0.16 -0.94,-0.32 -0.64,-0.18 -1.54,-0.18 -0.78,0 -1.36,0.32 -0.58,0.3 -0.58,0.96 0,0.34 0.12,0.6 0.14,0.26 0.4,0.48 0.28,0.2 0.68,0.38 0.4,0.18 0.96,0.38 0.74,0.28 1.32,0.56 0.58,0.26 0.98,0.62 0.42,0.36 0.64,0.88 0.22,0.5 0.22,1.24 0,1.44 -1.08,2.18 -1.06,0.74 -3.04,0.74 -1.38,0 -2.16,-0.24 -0.78,-0.22 -1.06,-0.34 l 0.34,-1.6 q 0.32,0.12 1.02,0.36 0.7,0.24 1.86,0.24 z"
         style="text-align:center;letter-spacing:0px;text-anchor:middle;fill:none;stroke:#00ff00;stroke-opacity:1"
         id="path6735" />
      <path
         d="m 259.4037,560.65423 q 0,-1.38 0.4,-2.4 0.4,-1.04 1.06,-1.72 0.66,-0.68 1.52,-1.02 0.86,-0.34 1.76,-0.34 2.1,0 3.22,1.32 1.12,1.3 1.12,3.98 0,0.12 0,0.32 0,0.18 -0.02,0.34 l -7.12,0 q 0.12,1.62 0.94,2.46 0.82,0.84 2.56,0.84 0.98,0 1.64,-0.16 0.68,-0.18 1.02,-0.34 l 0.26,1.56 q -0.34,0.18 -1.2,0.38 -0.84,0.2 -1.92,0.2 -1.36,0 -2.36,-0.4 -0.98,-0.42 -1.62,-1.14 -0.64,-0.72 -0.96,-1.7 -0.3,-1 -0.3,-2.18 z m 7.14,-1.02 q 0.02,-1.26 -0.64,-2.06 -0.64,-0.82 -1.78,-0.82 -0.64,0 -1.14,0.26 -0.48,0.24 -0.82,0.64 -0.34,0.4 -0.54,0.92 -0.18,0.52 -0.24,1.06 l 5.16,0 z"
         style="text-align:center;letter-spacing:0px;text-anchor:middle;fill:none;stroke:#00ff00;stroke-opacity:1"
         id="path6737" />
      <path
         d="m 274.99557,555.21423 q 0.24,0 0.54,0.04 0.32,0.02 0.62,0.08 0.3,0.04 0.54,0.1 0.26,0.04 0.38,0.08 l -0.32,1.62 q -0.22,-0.08 -0.74,-0.18 -0.5,-0.12 -1.3,-0.12 -0.52,0 -1.04,0.12 -0.5,0.1 -0.66,0.14 l 0,8.74 -1.86,0 0,-9.96 q 0.66,-0.24 1.64,-0.44 0.98,-0.22 2.2,-0.22 z"
         style="text-align:center;letter-spacing:0px;text-anchor:middle;fill:none;stroke:#00ff00;stroke-opacity:1"
         id="path6739" />
      <path
         d="m 287.43964,555.43423 q -0.78,2.92 -1.84,5.6 -1.04,2.68 -2.02,4.8 l -1.68,0 q -0.98,-2.12 -2.04,-4.8 -1.04,-2.68 -1.82,-5.6 l 2,0 q 0.24,0.98 0.56,2.1 0.34,1.1 0.7,2.2 0.38,1.08 0.76,2.1 0.38,1.02 0.72,1.82 0.34,-0.8 0.72,-1.82 0.38,-1.02 0.74,-2.1 0.38,-1.1 0.7,-2.2 0.34,-1.12 0.58,-2.1 l 1.92,0 z"
         style="text-align:center;letter-spacing:0px;text-anchor:middle;fill:none;stroke:#00ff00;stroke-opacity:1"
         id="path6741" />
      <path
         d="m 291.2187,565.83423 -1.86,0 0,-10.4 1.86,0 0,10.4 z m -0.94,-12.28 q -0.5,0 -0.86,-0.32 -0.34,-0.34 -0.34,-0.9 0,-0.56 0.34,-0.88 0.36,-0.34 0.86,-0.34 0.5,0 0.84,0.34 0.36,0.32 0.36,0.88 0,0.56 -0.36,0.9 -0.34,0.32 -0.84,0.32 z"
         style="text-align:center;letter-spacing:0px;text-anchor:middle;fill:none;stroke:#00ff00;stroke-opacity:1"
         id="path6743" />
      <path
         d="m 293.85682,560.65423 q 0,-1.38 0.4,-2.4 0.4,-1.04 1.06,-1.72 0.66,-0.68 1.52,-1.02 0.86,-0.34 1.76,-0.34 2.1,0 3.22,1.32 1.12,1.3 1.12,3.98 0,0.12 0,0.32 0,0.18 -0.02,0.34 l -7.12,0 q 0.12,1.62 0.94,2.46 0.82,0.84 2.56,0.84 0.98,0 1.64,-0.16 0.68,-0.18 1.02,-0.34 l 0.26,1.56 q -0.34,0.18 -1.2,0.38 -0.84,0.2 -1.92,0.2 -1.36,0 -2.36,-0.4 -0.98,-0.42 -1.62,-1.14 -0.64,-0.72 -0.96,-1.7 -0.3,-1 -0.3,-2.18 z m 7.14,-1.02 q 0.02,-1.26 -0.64,-2.06 -0.64,-0.82 -1.78,-0.82 -0.64,0 -1.14,0.26 -0.48,0.24 -0.82,0.64 -0.34,0.4 -0.54,0.92 -0.18,0.52 -0.24,1.06 l 5.16,0 z"
         style="text-align:center;letter-spacing:0px;text-anchor:middle;fill:none;stroke:#00ff00;stroke-opacity:1"
         id="path6745" />
      <path
         d="m 309.4487,555.21423 q 0.24,0 0.54,0.04 0.32,0.02 0.62,0.08 0.3,0.04 0.54,0.1 0.26,0.04 0.38,0.08 l -0.32,1.62 q -0.22,-0.08 -0.74,-0.18 -0.5,-0.12 -1.3,-0.12 -0.52,0 -1.04,0.12 -0.5,0.1 -0.66,0.14 l 0,8.74 -1.86,0 0,-9.96 q 0.66,-0.24 1.64,-0.44 0.98,-0.22 2.2,-0.22 z"
         style="text-align:center;letter-spacing:0px;text-anchor:middle;fill:none;stroke:#00ff00;stroke-opacity:1"
         id="path6747" />
      <path
         d="m 315.08307,555.43423 3.94,0 0,1.56 -3.94,0 0,4.8 q 0,0.78 0.12,1.3 0.12,0.5 0.36,0.8 0.24,0.28 0.6,0.4 0.36,0.12 0.84,0.12 0.84,0 1.34,-0.18 0.52,-0.2 0.72,-0.28 l 0.36,1.54 q -0.28,0.14 -0.98,0.34 -0.7,0.22 -1.6,0.22 -1.06,0 -1.76,-0.26 -0.68,-0.28 -1.1,-0.82 -0.42,-0.54 -0.6,-1.32 -0.16,-0.8 -0.16,-1.84 l 0,-9.28 1.86,-0.32 0,3.22 z"
         style="text-align:center;letter-spacing:0px;text-anchor:middle;fill:none;stroke:#00ff00;stroke-opacity:1"
         id="path6749" />
      <path
         d="m 330.05932,550.31423 q 0.82,0 1.4,0.12 0.6,0.12 0.84,0.22 l -0.34,1.6 q -0.24,-0.12 -0.68,-0.22 -0.44,-0.12 -1.08,-0.12 -1.3,0 -1.82,0.72 -0.52,0.7 -0.52,1.9 l 0,0.9 4,0 0,1.56 -4,0 0,8.84 -1.86,0 0,-11.34 q 0,-2 0.98,-3.08 0.98,-1.1 3.08,-1.1 z"
         style="text-align:center;letter-spacing:0px;text-anchor:middle;fill:none;stroke:#00ff00;stroke-opacity:1"
         id="path6751" />
      <path
         d="m 342.0137,565.53423 q -0.64,0.16 -1.7,0.34 -1.04,0.18 -2.42,0.18 -1.2,0 -2.02,-0.34 -0.82,-0.36 -1.32,-1 -0.5,-0.64 -0.72,-1.5 -0.22,-0.88 -0.22,-1.94 l 0,-5.84 1.86,0 0,5.44 q 0,1.9 0.6,2.72 0.6,0.82 2.02,0.82 0.3,0 0.62,-0.02 0.32,-0.02 0.6,-0.04 0.28,-0.04 0.5,-0.06 0.24,-0.04 0.34,-0.08 l 0,-8.78 1.86,0 0,10.1 z m -6.1,-12.02 q -0.46,0 -0.82,-0.32 -0.34,-0.34 -0.34,-0.86 0,-0.52 0.34,-0.84 0.36,-0.34 0.82,-0.34 0.46,0 0.8,0.34 0.36,0.32 0.36,0.84 0,0.52 -0.36,0.86 -0.34,0.32 -0.8,0.32 z m 3.8,0 q -0.46,0 -0.82,-0.32 -0.34,-0.34 -0.34,-0.86 0,-0.52 0.34,-0.84 0.36,-0.34 0.82,-0.34 0.46,0 0.8,0.34 0.36,0.32 0.36,0.84 0,0.52 -0.36,0.86 -0.34,0.32 -0.8,0.32 z"
         style="text-align:center;letter-spacing:0px;text-anchor:middle;fill:none;stroke:#00ff00;stroke-opacity:1"
         id="path6753" />
      <path
         d="m 349.05807,555.21423 q 0.24,0 0.54,0.04 0.32,0.02 0.62,0.08 0.3,0.04 0.54,0.1 0.26,0.04 0.38,0.08 l -0.32,1.62 q -0.22,-0.08 -0.74,-0.18 -0.5,-0.12 -1.3,-0.12 -0.52,0 -1.04,0.12 -0.5,0.1 -0.66,0.14 l 0,8.74 -1.86,0 0,-9.96 q 0.66,-0.24 1.64,-0.44 0.98,-0.22 2.2,-0.22 z"
         style="text-align:center;letter-spacing:0px;text-anchor:middle;fill:none;stroke:#00ff00;stroke-opacity:1"
         id="path6755" />
      <path
         d="m 250.65323,576.83423 q -0.42,0.46 -1.12,1.3 -0.68,0.84 -1.48,1.86 -0.78,1.02 -1.58,2.14 -0.78,1.12 -1.38,2.14 l 5.72,0 0,1.56 -7.94,0 0,-1.24 q 0.48,-0.88 1.18,-1.94 0.7,-1.06 1.46,-2.1 0.78,-1.06 1.5,-1.98 0.74,-0.94 1.28,-1.58 l -5.14,0 0,-1.56 7.5,0 0,1.4 z"
         style="text-align:center;letter-spacing:0px;text-anchor:middle;fill:none;stroke:#00ff00;stroke-opacity:1"
         id="path6757" />
      <path
         d="m 261.17385,585.53423 q -0.64,0.16 -1.7,0.34 -1.04,0.18 -2.42,0.18 -1.2,0 -2.02,-0.34 -0.82,-0.36 -1.32,-1 -0.5,-0.64 -0.72,-1.5 -0.22,-0.88 -0.22,-1.94 l 0,-5.84 1.86,0 0,5.44 q 0,1.9 0.6,2.72 0.6,0.82 2.02,0.82 0.3,0 0.62,-0.02 0.32,-0.02 0.6,-0.04 0.28,-0.04 0.5,-0.06 0.24,-0.04 0.34,-0.08 l 0,-8.78 1.86,0 0,10.1 z"
         style="text-align:center;letter-spacing:0px;text-anchor:middle;fill:none;stroke:#00ff00;stroke-opacity:1"
         id="path6759" />
      <path
         d="m 268.13823,580.11423 q 0.6,0.46 1.26,1.14 0.68,0.68 1.32,1.48 0.66,0.78 1.24,1.6 0.58,0.8 0.98,1.5 l -2.18,0 q -0.42,-0.7 -0.98,-1.42 -0.54,-0.74 -1.14,-1.4 -0.6,-0.68 -1.22,-1.24 -0.62,-0.56 -1.18,-0.94 l 0,5 -1.86,0 0,-15.2 1.86,-0.32 0,9.48 q 0.48,-0.48 1.06,-1.06 0.58,-0.58 1.14,-1.18 0.56,-0.6 1.06,-1.14 0.5,-0.56 0.86,-0.98 l 2.18,0 q -0.46,0.5 -1,1.1 -0.54,0.6 -1.12,1.22 -0.58,0.6 -1.18,1.22 -0.58,0.6 -1.1,1.14 z"
         style="text-align:center;letter-spacing:0px;text-anchor:middle;fill:none;stroke:#00ff00;stroke-opacity:1"
         id="path6761" />
      <path
         d="m 283.08792,585.53423 q -0.64,0.16 -1.7,0.34 -1.04,0.18 -2.42,0.18 -1.2,0 -2.02,-0.34 -0.82,-0.36 -1.32,-1 -0.5,-0.64 -0.72,-1.5 -0.22,-0.88 -0.22,-1.94 l 0,-5.84 1.86,0 0,5.44 q 0,1.9 0.6,2.72 0.6,0.82 2.02,0.82 0.3,0 0.62,-0.02 0.32,-0.02 0.6,-0.04 0.28,-0.04 0.5,-0.06 0.24,-0.04 0.34,-0.08 l 0,-8.78 1.86,0 0,10.1 z m -6.1,-12.02 q -0.46,0 -0.82,-0.32 -0.34,-0.34 -0.34,-0.86 0,-0.52 0.34,-0.84 0.36,-0.34 0.82,-0.34 0.46,0 0.8,0.34 0.36,0.32 0.36,0.84 0,0.52 -0.36,0.86 -0.34,0.32 -0.8,0.32 z m 3.8,0 q -0.46,0 -0.82,-0.32 -0.34,-0.34 -0.34,-0.86 0,-0.52 0.34,-0.84 0.36,-0.34 0.82,-0.34 0.46,0 0.8,0.34 0.36,0.32 0.36,0.84 0,0.52 -0.36,0.86 -0.34,0.32 -0.8,0.32 z"
         style="text-align:center;letter-spacing:0px;text-anchor:middle;fill:none;stroke:#00ff00;stroke-opacity:1"
         id="path6763" />
      <path
         d="m 286.29229,575.73423 q 0.64,-0.16 1.7,-0.34 1.06,-0.18 2.44,-0.18 1.24,0 2.06,0.36 0.82,0.34 1.3,0.98 0.5,0.62 0.7,1.5 0.2,0.88 0.2,1.94 l 0,5.84 -1.86,0 0,-5.44 q 0,-0.96 -0.14,-1.64 -0.12,-0.68 -0.42,-1.1 -0.3,-0.42 -0.8,-0.6 -0.5,-0.2 -1.24,-0.2 -0.3,0 -0.62,0.02 -0.32,0.02 -0.62,0.06 -0.28,0.02 -0.52,0.06 -0.22,0.04 -0.32,0.06 l 0,8.78 -1.86,0 0,-10.1 z"
         style="text-align:center;letter-spacing:0px;text-anchor:middle;fill:none;stroke:#00ff00;stroke-opacity:1"
         id="path6765" />
      <path
         d="m 301.83667,570.31423 q 0.82,0 1.4,0.12 0.6,0.12 0.84,0.22 l -0.34,1.6 q -0.24,-0.12 -0.68,-0.22 -0.44,-0.12 -1.08,-0.12 -1.3,0 -1.82,0.72 -0.52,0.7 -0.52,1.9 l 0,0.9 4,0 0,1.56 -4,0 0,8.84 -1.86,0 0,-11.34 q 0,-2 0.98,-3.08 0.98,-1.1 3.08,-1.1 z"
         style="text-align:center;letter-spacing:0px;text-anchor:middle;fill:none;stroke:#00ff00;stroke-opacity:1"
         id="path6767" />
      <path
         d="m 307.25104,575.43423 3.94,0 0,1.56 -3.94,0 0,4.8 q 0,0.78 0.12,1.3 0.12,0.5 0.36,0.8 0.24,0.28 0.6,0.4 0.36,0.12 0.84,0.12 0.84,0 1.34,-0.18 0.52,-0.2 0.72,-0.28 l 0.36,1.54 q -0.28,0.14 -0.98,0.34 -0.7,0.22 -1.6,0.22 -1.06,0 -1.76,-0.26 -0.68,-0.28 -1.1,-0.82 -0.42,-0.54 -0.6,-1.32 -0.16,-0.8 -0.16,-1.84 l 0,-9.28 1.86,-0.32 0,3.22 z"
         style="text-align:center;letter-spacing:0px;text-anchor:middle;fill:none;stroke:#00ff00;stroke-opacity:1"
         id="path6769" />
      <path
         d="m 315.41792,585.83423 -1.86,0 0,-10.4 1.86,0 0,10.4 z m -0.94,-12.28 q -0.5,0 -0.86,-0.32 -0.34,-0.34 -0.34,-0.9 0,-0.56 0.34,-0.88 0.36,-0.34 0.86,-0.34 0.5,0 0.84,0.34 0.36,0.32 0.36,0.88 0,0.56 -0.36,0.9 -0.34,0.32 -0.84,0.32 z"
         style="text-align:center;letter-spacing:0px;text-anchor:middle;fill:none;stroke:#00ff00;stroke-opacity:1"
         id="path6771" />
      <path
         d="m 325.15604,584.79423 q -0.24,0.16 -0.94,0.42 -0.68,0.24 -1.6,0.24 -0.94,0 -1.78,-0.3 -0.82,-0.3 -1.44,-0.92 -0.62,-0.64 -0.98,-1.58 -0.36,-0.94 -0.36,-2.24 0,-1.14 0.34,-2.08 0.34,-0.96 0.98,-1.64 0.66,-0.7 1.6,-1.08 0.94,-0.4 2.12,-0.4 1.3,0 2.26,0.2 0.98,0.18 1.64,0.34 l 0,9.28 q 0,2.4 -1.24,3.48 -1.24,1.08 -3.76,1.08 -0.98,0 -1.86,-0.16 -0.86,-0.16 -1.5,-0.38 l 0.34,-1.62 q 0.56,0.22 1.36,0.38 0.82,0.18 1.7,0.18 1.66,0 2.38,-0.66 0.74,-0.66 0.74,-2.1 l 0,-0.44 z m -0.02,-7.72 q -0.28,-0.08 -0.76,-0.14 -0.46,-0.08 -1.26,-0.08 -1.5,0 -2.32,0.98 -0.8,0.98 -0.8,2.6 0,0.9 0.22,1.54 0.24,0.64 0.62,1.06 0.4,0.42 0.9,0.62 0.52,0.2 1.06,0.2 0.74,0 1.36,-0.2 0.62,-0.22 0.98,-0.5 l 0,-6.08 z"
         style="text-align:center;letter-spacing:0px;text-anchor:middle;fill:none;stroke:#00ff00;stroke-opacity:1"
         id="path6773" />
      <path
         d="m 329.61854,580.65423 q 0,-1.38 0.4,-2.4 0.4,-1.04 1.06,-1.72 0.66,-0.68 1.52,-1.02 0.86,-0.34 1.76,-0.34 2.1,0 3.22,1.32 1.12,1.3 1.12,3.98 0,0.12 0,0.32 0,0.18 -0.02,0.34 l -7.12,0 q 0.12,1.62 0.94,2.46 0.82,0.84 2.56,0.84 0.98,0 1.64,-0.16 0.68,-0.18 1.02,-0.34 l 0.26,1.56 q -0.34,0.18 -1.2,0.38 -0.84,0.2 -1.92,0.2 -1.36,0 -2.36,-0.4 -0.98,-0.42 -1.62,-1.14 -0.64,-0.72 -0.96,-1.7 -0.3,-1 -0.3,-2.18 z m 7.14,-1.02 q 0.02,-1.26 -0.64,-2.06 -0.64,-0.82 -1.78,-0.82 -0.64,0 -1.14,0.26 -0.48,0.24 -0.82,0.64 -0.34,0.4 -0.54,0.92 -0.18,0.52 -0.24,1.06 l 5.16,0 z"
         style="text-align:center;letter-spacing:0px;text-anchor:middle;fill:none;stroke:#00ff00;stroke-opacity:1"
         id="path6775" />
      <path
         d="m 251.73385,603.91423 q -0.2,-0.48 -0.54,-1.22 -0.32,-0.74 -0.7,-1.6 -0.38,-0.86 -0.82,-1.76 -0.42,-0.92 -0.8,-1.72 -0.38,-0.82 -0.72,-1.46 -0.32,-0.64 -0.52,-0.98 -0.22,2.36 -0.36,5.12 -0.14,2.74 -0.24,5.54 l -1.9,0 q 0.08,-1.8 0.18,-3.62 0.1,-1.84 0.22,-3.6 0.14,-1.78 0.28,-3.46 0.16,-1.68 0.34,-3.18 l 1.7,0 q 0.54,0.88 1.16,2.08 0.62,1.2 1.24,2.52 0.62,1.3 1.2,2.62 0.58,1.3 1.06,2.38 0.48,-1.08 1.06,-2.38 0.58,-1.32 1.2,-2.62 0.62,-1.32 1.24,-2.52 0.62,-1.2 1.16,-2.08 l 1.7,0 q 0.68,6.7 1.02,13.86 l -1.9,0 q -0.1,-2.8 -0.24,-5.54 -0.14,-2.76 -0.36,-5.12 -0.2,0.34 -0.54,0.98 -0.32,0.64 -0.7,1.46 -0.38,0.8 -0.82,1.72 -0.42,0.9 -0.8,1.76 -0.38,0.86 -0.72,1.6 -0.32,0.74 -0.52,1.22 l -1.56,0 z"
         style="text-align:center;letter-spacing:0px;text-anchor:middle;fill:none;stroke:#00ff00;stroke-opacity:1"
         id="path6777" />
      <path
         d="m 264.67573,605.83423 -1.86,0 0,-10.4 1.86,0 0,10.4 z m -0.94,-12.28 q -0.5,0 -0.86,-0.32 -0.34,-0.34 -0.34,-0.9 0,-0.56 0.34,-0.88 0.36,-0.34 0.86,-0.34 0.5,0 0.84,0.34 0.36,0.32 0.36,0.88 0,0.56 -0.36,0.9 -0.34,0.32 -0.84,0.32 z"
         style="text-align:center;letter-spacing:0px;text-anchor:middle;fill:none;stroke:#00ff00;stroke-opacity:1"
         id="path6779" />
      <path
         d="m 269.63385,595.43423 3.94,0 0,1.56 -3.94,0 0,4.8 q 0,0.78 0.12,1.3 0.12,0.5 0.36,0.8 0.24,0.28 0.6,0.4 0.36,0.12 0.84,0.12 0.84,0 1.34,-0.18 0.52,-0.2 0.72,-0.28 l 0.36,1.54 q -0.28,0.14 -0.98,0.34 -0.7,0.22 -1.6,0.22 -1.06,0 -1.76,-0.26 -0.68,-0.28 -1.1,-0.82 -0.42,-0.54 -0.6,-1.32 -0.16,-0.8 -0.16,-1.84 l 0,-9.28 1.86,-0.32 0,3.22 z"
         style="text-align:center;letter-spacing:0px;text-anchor:middle;fill:none;stroke:#00ff00;stroke-opacity:1"
         id="path6781" />
      <path
         d="m 282.26542,604.79423 q -0.24,0.16 -0.94,0.42 -0.68,0.24 -1.6,0.24 -0.94,0 -1.78,-0.3 -0.82,-0.3 -1.44,-0.92 -0.62,-0.64 -0.98,-1.58 -0.36,-0.94 -0.36,-2.24 0,-1.14 0.34,-2.08 0.34,-0.96 0.98,-1.64 0.66,-0.7 1.6,-1.08 0.94,-0.4 2.12,-0.4 1.3,0 2.26,0.2 0.98,0.18 1.64,0.34 l 0,9.28 q 0,2.4 -1.24,3.48 -1.24,1.08 -3.76,1.08 -0.98,0 -1.86,-0.16 -0.86,-0.16 -1.5,-0.38 l 0.34,-1.62 q 0.56,0.22 1.36,0.38 0.82,0.18 1.7,0.18 1.66,0 2.38,-0.66 0.74,-0.66 0.74,-2.1 l 0,-0.44 z m -0.02,-7.72 q -0.28,-0.08 -0.76,-0.14 -0.46,-0.08 -1.26,-0.08 -1.5,0 -2.32,0.98 -0.8,0.98 -0.8,2.6 0,0.9 0.22,1.54 0.24,0.64 0.62,1.06 0.4,0.42 0.9,0.62 0.52,0.2 1.06,0.2 0.74,0 1.36,-0.2 0.62,-0.22 0.98,-0.5 l 0,-6.08 z"
         style="text-align:center;letter-spacing:0px;text-anchor:middle;fill:none;stroke:#00ff00;stroke-opacity:1"
         id="path6783" />
      <path
         d="m 290.42792,606.03423 q -1.72,-0.04 -2.44,-0.74 -0.72,-0.7 -0.72,-2.18 l 0,-12.48 1.86,-0.32 0,12.5 q 0,0.46 0.08,0.76 0.08,0.3 0.26,0.48 0.18,0.18 0.48,0.28 0.3,0.08 0.74,0.14 l -0.26,1.56 z"
         style="text-align:center;letter-spacing:0px;text-anchor:middle;fill:none;stroke:#00ff00;stroke-opacity:1"
         id="path6785" />
      <path
         d="m 294.63667,605.83423 -1.86,0 0,-10.4 1.86,0 0,10.4 z m -0.94,-12.28 q -0.5,0 -0.86,-0.32 -0.34,-0.34 -0.34,-0.9 0,-0.56 0.34,-0.88 0.36,-0.34 0.86,-0.34 0.5,0 0.84,0.34 0.36,0.32 0.36,0.88 0,0.56 -0.36,0.9 -0.34,0.32 -0.84,0.32 z"
         style="text-align:center;letter-spacing:0px;text-anchor:middle;fill:none;stroke:#00ff00;stroke-opacity:1"
         id="path6787" />
      <path
         d="m 297.27479,600.65423 q 0,-1.38 0.4,-2.4 0.4,-1.04 1.06,-1.72 0.66,-0.68 1.52,-1.02 0.86,-0.34 1.76,-0.34 2.1,0 3.22,1.32 1.12,1.3 1.12,3.98 0,0.12 0,0.32 0,0.18 -0.02,0.34 l -7.12,0 q 0.12,1.62 0.94,2.46 0.82,0.84 2.56,0.84 0.98,0 1.64,-0.16 0.68,-0.18 1.02,-0.34 l 0.26,1.56 q -0.34,0.18 -1.2,0.38 -0.84,0.2 -1.92,0.2 -1.36,0 -2.36,-0.4 -0.98,-0.42 -1.62,-1.14 -0.64,-0.72 -0.96,-1.7 -0.3,-1 -0.3,-2.18 z m 7.14,-1.02 q 0.02,-1.26 -0.64,-2.06 -0.64,-0.82 -1.78,-0.82 -0.64,0 -1.14,0.26 -0.48,0.24 -0.82,0.64 -0.34,0.4 -0.54,0.92 -0.18,0.52 -0.24,1.06 l 5.16,0 z"
         style="text-align:center;letter-spacing:0px;text-anchor:middle;fill:none;stroke:#00ff00;stroke-opacity:1"
         id="path6789" />
      <path
         d="m 315.74667,597.63423 q -0.34,-0.28 -0.98,-0.54 -0.64,-0.26 -1.4,-0.26 -0.8,0 -1.38,0.3 -0.56,0.28 -0.92,0.8 -0.36,0.5 -0.52,1.2 -0.16,0.7 -0.16,1.5 0,1.82 0.9,2.82 0.9,0.98 2.4,0.98 0.76,0 1.26,-0.06 0.52,-0.08 0.8,-0.16 l 0,-6.58 z m 0,-7 1.86,-0.32 0,15.22 q -0.64,0.18 -1.64,0.36 -1,0.18 -2.3,0.18 -1.2,0 -2.16,-0.38 -0.96,-0.38 -1.64,-1.08 -0.68,-0.7 -1.06,-1.7 -0.36,-1.02 -0.36,-2.28 0,-1.2 0.3,-2.2 0.32,-1 0.92,-1.72 0.6,-0.72 1.46,-1.12 0.88,-0.4 2,-0.4 0.9,0 1.58,0.24 0.7,0.24 1.04,0.46 l 0,-5.26 z"
         style="text-align:center;letter-spacing:0px;text-anchor:middle;fill:none;stroke:#00ff00;stroke-opacity:1"
         id="path6791" />
      <path
         d="m 320.24354,600.65423 q 0,-1.38 0.4,-2.4 0.4,-1.04 1.06,-1.72 0.66,-0.68 1.52,-1.02 0.86,-0.34 1.76,-0.34 2.1,0 3.22,1.32 1.12,1.3 1.12,3.98 0,0.12 0,0.32 0,0.18 -0.02,0.34 l -7.12,0 q 0.12,1.62 0.94,2.46 0.82,0.84 2.56,0.84 0.98,0 1.64,-0.16 0.68,-0.18 1.02,-0.34 l 0.26,1.56 q -0.34,0.18 -1.2,0.38 -0.84,0.2 -1.92,0.2 -1.36,0 -2.36,-0.4 -0.98,-0.42 -1.62,-1.14 -0.64,-0.72 -0.96,-1.7 -0.3,-1 -0.3,-2.18 z m 7.14,-1.02 q 0.02,-1.26 -0.64,-2.06 -0.64,-0.82 -1.78,-0.82 -0.64,0 -1.14,0.26 -0.48,0.24 -0.82,0.64 -0.34,0.4 -0.54,0.92 -0.18,0.52 -0.24,1.06 l 5.16,0 z"
         style="text-align:center;letter-spacing:0px;text-anchor:middle;fill:none;stroke:#00ff00;stroke-opacity:1"
         id="path6793" />
      <path
         d="m 335.83542,595.21423 q 0.24,0 0.54,0.04 0.32,0.02 0.62,0.08 0.3,0.04 0.54,0.1 0.26,0.04 0.38,0.08 l -0.32,1.62 q -0.22,-0.08 -0.74,-0.18 -0.5,-0.12 -1.3,-0.12 -0.52,0 -1.04,0.12 -0.5,0.1 -0.66,0.14 l 0,8.74 -1.86,0 0,-9.96 q 0.66,-0.24 1.64,-0.44 0.98,-0.22 2.2,-0.22 z"
         style="text-align:center;letter-spacing:0px;text-anchor:middle;fill:none;stroke:#00ff00;stroke-opacity:1"
         id="path6795" />
    </g>
  </g>
</svg>
