<?xml version="1.0" encoding="UTF-8" standalone="no"?>
<!-- Created with Inkscape (http://www.inkscape.org/) -->

<svg
   xmlns:dc="http://purl.org/dc/elements/1.1/"
   xmlns:cc="http://creativecommons.org/ns#"
   xmlns:rdf="http://www.w3.org/1999/02/22-rdf-syntax-ns#"
   xmlns:svg="http://www.w3.org/2000/svg"
   xmlns="http://www.w3.org/2000/svg"
   xmlns:sodipodi="http://sodipodi.sourceforge.net/DTD/sodipodi-0.dtd"
   xmlns:inkscape="http://www.inkscape.org/namespaces/inkscape"
   width="210mm"
   height="297mm"
   viewBox="0 0 744.09448819 1052.3622047"
   id="svg2"
   version="1.1"
   inkscape:version="0.91 r13725"
   sodipodi:docname="regal_schild_template.svg">
  <defs
     id="defs4">
    <inkscape:perspective
       sodipodi:type="inkscape:persp3d"
       inkscape:vp_x="0 : 380.90848 : 1"
       inkscape:vp_y="0 : 1000 : 0"
       inkscape:vp_z="637.79529 : 380.90848 : 1"
       inkscape:persp3d-origin="318.89764 : 253.93899 : 1"
       id="perspective10" />
  </defs>
  <sodipodi:namedview
     id="base"
     pagecolor="#ffffff"
     bordercolor="#666666"
     borderopacity="1.0"
     inkscape:pageopacity="0.0"
     inkscape:pageshadow="2"
     inkscape:zoom="1.979899"
     inkscape:cx="-47.266894"
     inkscape:cy="502.92599"
     inkscape:document-units="px"
     inkscape:current-layer="layer1"
     showgrid="false"
     inkscape:window-width="2560"
     inkscape:window-height="1368"
     inkscape:window-x="0"
     inkscape:window-y="35"
     inkscape:window-maximized="1" />
  <metadata
     id="metadata7">
    <rdf:RDF>
      <cc:Work
         rdf:about="">
        <dc:format>image/svg+xml</dc:format>
        <dc:type
           rdf:resource="http://purl.org/dc/dcmitype/StillImage" />
        <dc:title />
      </cc:Work>
    </rdf:RDF>
  </metadata>
  <g
     inkscape:label="Layer 1"
     inkscape:groupmode="layer"
     id="layer1">
    <text
       sodipodi:linespacing="125%"
       id="text3529"
       y="402.96573"
       x="320.98138"
       style="font-style:normal;font-weight:normal;font-size:13.62146187px;line-height:125%;font-family:Sans;letter-spacing:0px;word-spacing:0px;fill:none;fill-opacity:1;stroke:#00ff00;stroke-width:0.7252453;stroke-opacity:1"
       xml:space="preserve"><tspan
         style="font-style:normal;font-variant:normal;font-weight:normal;font-stretch:normal;font-family:'Trebuchet MS';-inkscape-font-specification:'Trebuchet MS';fill:none;stroke:#00ff00;stroke-width:0.7252453;stroke-opacity:1"
         y="402.96573"
         x="320.98138"
         id="tspan3531"
         sodipodi:role="line" /></text>
    <text
       sodipodi:linespacing="125%"
       id="text3537"
       y="402.25406"
       x="328.86411"
       style="font-style:normal;font-weight:normal;font-size:20.3068676px;line-height:125%;font-family:Sans;letter-spacing:0px;word-spacing:0px;fill:none;fill-opacity:1;stroke:#00ff00;stroke-width:0.7252453;stroke-opacity:1"
       xml:space="preserve"><tspan
         y="402.25406"
         x="328.86411"
         id="tspan3539"
         sodipodi:role="line"
         style="stroke-width:0.7252453" /></text>
    <rect
       style="color:#000000;display:inline;overflow:visible;visibility:visible;opacity:1;fill:none;fill-opacity:1;fill-rule:evenodd;stroke:#000000;stroke-width:1.15400004;stroke-linecap:butt;stroke-linejoin:miter;stroke-miterlimit:4;stroke-dasharray:none;stroke-dashoffset:0;stroke-opacity:1;marker:none;enable-background:accumulate"
       id="rect4065"
       width="140.57828"
       height="328.57141"
       x="221.36549"
       y="293.54849" />
    <path
       style="color:#000000;display:inline;overflow:visible;visibility:visible;opacity:1;fill:none;fill-opacity:1;fill-rule:evenodd;stroke:#000000;stroke-width:1.15400004;stroke-linecap:butt;stroke-linejoin:miter;stroke-miterlimit:4;stroke-dasharray:none;stroke-dashoffset:0;stroke-opacity:1;marker:none;enable-background:accumulate"
       d="m 305.25083,322.38089 a 13.596229,13.596229 0 0 1 -13.59623,13.59623 13.596229,13.596229 0 0 1 -13.59623,-13.59623 13.596229,13.596229 0 0 1 13.59623,-13.59623 13.596229,13.596229 0 0 1 13.59623,13.59623 z"
       id="path5008" />
    <g
       transform="matrix(1.3047528,0,0,0.76642871,0,4)"
       style="font-style:normal;font-variant:normal;font-weight:normal;font-stretch:normal;font-size:96.83045197px;line-height:100%;font-family:Ubuntu;-inkscape-font-specification:'Ubuntu, Normal';text-align:start;letter-spacing:-11.66806793px;word-spacing:0px;writing-mode:lr-tb;text-anchor:start;fill:none;fill-opacity:1;stroke:#00ff00;stroke-width:1px;stroke-linecap:butt;stroke-linejoin:miter;stroke-opacity:1"
       id="text3394">
      <path
         d="m 202.25626,564.57886 q -1.27657,0 -2.31674,0.47281 -1.13473,0.4728 -2.03306,1.32385 -0.85105,0.80377 -1.32385,2.03306 -0.47281,1.08746 -0.47281,2.36403 0,1.22929 0.47281,2.31674 0.56736,1.32386 1.32385,2.03306 0.89833,0.85105 2.03306,1.32386 1.04017,0.4728 2.31674,0.4728 l 43.45078,0 -11.01636,-11.01635 5.67366,-5.67366 18.58124,18.58123 0,4.25525 -18.58124,18.58123 -5.67366,-5.67366 11.01636,-11.01635 -43.45078,0 q -3.07323,0 -5.38997,-1.04017 -2.74227,-1.2293 -4.58621,-3.12052 -2.12762,-2.1749 -3.12051,-4.63348 -1.04017,-2.55315 -1.04017,-5.38998 0,-2.88411 1.04017,-5.43726 1.08745,-2.69499 3.12051,-4.63349 2.22218,-2.12762 4.58621,-3.12051 2.45858,-1.04017 5.38997,-1.04017 l 0,8.03768 z"
         id="path3406"
         inkscape:connector-curvature="0" />
    </g>
    <g
       transform="matrix(-1.3047528,0,0,-0.76642871,0,4)"
       style="font-style:normal;font-variant:normal;font-weight:normal;font-stretch:normal;font-size:96.83045197px;line-height:100%;font-family:Ubuntu;-inkscape-font-specification:'Ubuntu, Normal';text-align:start;letter-spacing:-11.66806793px;word-spacing:0px;writing-mode:lr-tb;text-anchor:start;fill:none;fill-opacity:1;stroke:#00ff00;stroke-width:1px;stroke-linecap:butt;stroke-linejoin:miter;stroke-opacity:1"
       id="text3398">
      <path
         d="m -244.80869,-632.75152 q -1.27658,0 -2.31675,0.47281 -1.13473,0.4728 -2.03306,1.32385 -0.85105,0.80377 -1.32385,2.03306 -0.47281,1.08745 -0.47281,2.36403 0,1.22929 0.47281,2.31674 0.56736,1.32385 1.32385,2.03306 0.89833,0.85105 2.03306,1.32385 1.04017,0.47281 2.31675,0.47281 l 43.45077,0 -11.01635,-11.01636 5.67366,-5.67365 18.58123,18.58123 0,4.25524 -18.58123,18.58124 -5.67366,-5.67366 11.01635,-11.01636 -43.45077,0 q -3.07323,0 -5.38998,-1.04017 -2.74227,-1.22929 -4.58621,-3.12051 -2.12762,-2.1749 -3.12051,-4.63349 -1.04017,-2.55314 -1.04017,-5.38997 0,-2.88411 1.04017,-5.43726 1.08745,-2.69499 3.12051,-4.63349 2.22219,-2.12762 4.58621,-3.12051 2.45859,-1.04017 5.38998,-1.04017 l 0,8.03768 z"
         id="path3403"
         inkscape:connector-curvature="0" />
    </g>
    <text
       xml:space="preserve"
       style="font-style:normal;font-variant:normal;font-weight:normal;font-stretch:normal;font-size:20px;line-height:100%;font-family:Ubuntu;-inkscape-font-specification:'Ubuntu, Normal';text-align:start;letter-spacing:-2.40999985px;word-spacing:0px;writing-mode:lr-tb;text-anchor:start;fill:none;fill-opacity:1;stroke:#00ff00;stroke-width:1px;stroke-linecap:butt;stroke-linejoin:miter;stroke-opacity:1;"
       x="264.1257"
       y="387.05493"
       id="text3408"
       sodipodi:linespacing="100%"><tspan
         sodipodi:role="line"
         x="264.1257"
         y="387.05493"
         id="tspan3412">Name 1</tspan></text>
    <text
       xml:space="preserve"
       style="font-style:normal;font-variant:normal;font-weight:normal;font-stretch:normal;font-size:20px;line-height:100%;font-family:Ubuntu;-inkscape-font-specification:'Ubuntu, Normal';text-align:start;letter-spacing:-2.40999985px;word-spacing:0px;writing-mode:lr-tb;text-anchor:start;fill:none;fill-opacity:1;stroke:#00ff00;stroke-width:1px;stroke-linecap:butt;stroke-linejoin:miter;stroke-opacity:1"
       x="264.01538"
       y="544.25543"
       id="text3420"
       sodipodi:linespacing="100%"><tspan
         sodipodi:role="line"
         x="264.01538"
         y="544.25543"
         id="tspan3424">Name2</tspan></text>
  </g>
</svg>
