<?xml version="1.0" encoding="UTF-8" standalone="no"?>
<!-- Created with Inkscape (http://www.inkscape.org/) -->

<svg
   xmlns:dc="http://purl.org/dc/elements/1.1/"
   xmlns:cc="http://creativecommons.org/ns#"
   xmlns:rdf="http://www.w3.org/1999/02/22-rdf-syntax-ns#"
   xmlns:svg="http://www.w3.org/2000/svg"
   xmlns="http://www.w3.org/2000/svg"
   xmlns:sodipodi="http://sodipodi.sourceforge.net/DTD/sodipodi-0.dtd"
   xmlns:inkscape="http://www.inkscape.org/namespaces/inkscape"
   width="420mm"
   height="297mm"
   viewBox="0 0 1488.189 1052.3622"
   id="svg2"
   version="1.1"
   inkscape:version="0.91 r13725"
   sodipodi:docname="biomüll.svg">
  <defs
     id="defs4" />
  <sodipodi:namedview
     id="base"
     pagecolor="#ffffff"
     bordercolor="#666666"
     borderopacity="1.0"
     inkscape:pageopacity="0.0"
     inkscape:pageshadow="2"
     inkscape:zoom="0.7"
     inkscape:cx="1262.3051"
     inkscape:cy="414.92856"
     inkscape:document-units="px"
     inkscape:current-layer="layer1"
     showgrid="false"
     inkscape:window-width="2560"
     inkscape:window-height="1368"
     inkscape:window-x="0"
     inkscape:window-y="35"
     inkscape:window-maximized="1" />
  <metadata
     id="metadata7">
    <rdf:RDF>
      <cc:Work
         rdf:about="">
        <dc:format>image/svg+xml</dc:format>
        <dc:type
           rdf:resource="http://purl.org/dc/dcmitype/StillImage" />
        <dc:title></dc:title>
      </cc:Work>
    </rdf:RDF>
  </metadata>
  <g
     inkscape:label="Layer 1"
     inkscape:groupmode="layer"
     id="layer1"
     transform="translate(0,-1.6535434e-6)">
    <g
       transform="matrix(0,-1.3322289,0.93705581,0,-274.21366,-990.09084)"
       style="font-style:normal;font-variant:normal;font-weight:normal;font-stretch:normal;font-size:191.459198px;line-height:100%;font-family:Ubuntu;-inkscape-font-specification:'Ubuntu, Normal';text-align:start;letter-spacing:-23.07082939px;word-spacing:0px;writing-mode:lr-tb;text-anchor:start;fill:none;fill-opacity:1;stroke:#00ff00;stroke-width:0.89500993px;stroke-linecap:butt;stroke-linejoin:miter;stroke-opacity:1"
       id="text3336">
      <path
         d="m -1427.9427,485.16583 q -10.5302,0 -21.252,-0.76584 -10.7217,-0.57438 -18.763,-2.68043 l 0,-128.85204 q 4.2121,-0.76583 8.9986,-1.34021 4.7865,-0.76584 9.7644,-1.14876 4.978,-0.38291 9.7645,-0.57437 4.9779,-0.19146 9.3815,-0.19146 12.0619,0 22.4007,1.91459 10.3388,1.72313 17.8057,5.93523 7.6584,4.21211 11.8705,11.10464 4.2121,6.89253 4.2121,17.03987 0,9.3815 -4.5951,16.08257 -4.4035,6.70107 -12.4448,10.72171 12.0619,4.02065 17.8057,11.87047 5.7438,7.84983 5.7438,19.91176 0,20.48613 -14.9338,30.82493 -14.9339,10.14734 -45.7588,10.14734 z m -16.274,-61.26694 0,40.39789 q 4.0206,0.38291 8.6156,0.57437 4.5951,0.19146 8.4242,0.19146 7.467,0 13.7851,-0.95729 6.5096,-0.9573 11.1046,-3.25481 4.7865,-2.48897 7.4669,-6.50961 2.8719,-4.02065 2.8719,-10.3388 0,-11.29609 -8.2327,-15.69965 -8.2328,-4.40356 -22.7837,-4.40356 l -21.2519,0 z m 0,-18.95447 17.0398,0 q 13.7851,0 21.6349,-3.82918 7.8499,-4.02064 7.8499,-14.16798 0,-9.57296 -8.2328,-13.5936 -8.0413,-4.02065 -21.0605,-4.02065 -5.5523,0 -9.9559,0.19146 -4.2121,0.19146 -7.2754,0.57438 l 0,34.84557 z"
         style="font-style:normal;font-variant:normal;font-weight:500;font-stretch:normal;font-family:Ubuntu;-inkscape-font-specification:'Ubuntu Medium';letter-spacing:0px;word-spacing:0.77915168px;fill:none;stroke:#00ff00;stroke-width:0.89500993px;stroke-opacity:1"
         id="path3364"
         inkscape:connector-curvature="0" />
      <path
         d="m -1320.1033,483.63416 -23.1666,0 0,-100.13317 23.1666,0 0,100.13317 z m 2.489,-129.42642 q 0,6.50961 -4.2121,10.33879 -4.2121,3.82919 -9.9559,3.82919 -5.9352,0 -10.1474,-3.82919 -4.2121,-3.82918 -4.2121,-10.33879 0,-6.70107 4.2121,-10.53026 4.2122,-3.82918 10.1474,-3.82918 5.7438,0 9.9559,3.82918 4.2121,3.82919 4.2121,10.53026 z"
         style="font-style:normal;font-variant:normal;font-weight:500;font-stretch:normal;font-family:Ubuntu;-inkscape-font-specification:'Ubuntu Medium';letter-spacing:0px;word-spacing:0.77915168px;fill:none;stroke:#00ff00;stroke-width:0.89500993px;stroke-opacity:1"
         id="path3366"
         inkscape:connector-curvature="0" />
      <path
         d="m -1200.1751,433.47185 q 0,11.87047 -3.4462,21.63488 -3.4463,9.76442 -9.7644,16.65695 -6.3182,6.89254 -15.3168,10.72172 -8.8071,3.82918 -19.5288,3.82918 -10.7217,0 -19.5289,-3.82918 -8.8071,-3.82918 -15.1252,-10.72172 -6.3182,-6.89253 -9.9559,-16.65695 -3.4463,-9.76441 -3.4463,-21.63488 0,-11.87047 3.4463,-21.44343 3.6377,-9.76442 9.9559,-16.65696 6.5096,-6.89253 15.3167,-10.53025 8.8071,-3.82918 19.3374,-3.82918 10.5302,0 19.3374,3.82918 8.9985,3.63772 15.3167,10.53025 6.3182,6.89254 9.7644,16.65696 3.6377,9.57296 3.6377,21.44343 z m -23.7409,0 q 0,-14.93382 -6.5096,-23.54949 -6.3182,-8.80712 -17.8057,-8.80712 -11.4876,0 -17.9972,8.80712 -6.3181,8.61567 -6.3181,23.54949 0,15.12527 6.3181,23.9324 6.5096,8.80712 17.9972,8.80712 11.4875,0 17.8057,-8.80712 6.5096,-8.80713 6.5096,-23.9324 z"
         style="font-style:normal;font-variant:normal;font-weight:500;font-stretch:normal;font-family:Ubuntu;-inkscape-font-specification:'Ubuntu Medium';letter-spacing:0px;word-spacing:0.77915168px;fill:none;stroke:#00ff00;stroke-width:0.89500993px;stroke-opacity:1"
         id="path3368"
         inkscape:connector-curvature="0" />
      <path
         d="m -1119.2536,430.98288 q 0,-15.69966 -4.0207,-22.59219 -3.8292,-7.08399 -14.5509,-7.08399 -3.8292,0 -8.4242,0.57438 -4.595,0.57438 -6.8925,0.95729 l 0,80.79579 -23.1666,0 0,-96.87836 q 6.7011,-1.91459 17.4228,-3.63772 10.9132,-1.72314 22.9751,-1.72314 10.3388,0 16.8484,2.68043 6.7011,2.68043 11.1046,7.08399 2.1061,-1.53167 5.3609,-3.2548 3.2548,-1.72314 7.2755,-3.06335 4.0206,-1.53167 8.4242,-2.48897 4.595,-0.9573 9.19,-0.9573 11.679,0 19.1459,3.44627 7.6584,3.25481 11.8705,9.3815 4.4036,5.93523 5.9352,14.5509 1.7232,8.4242 1.7232,18.57154 l 0,56.28901 -23.1666,0 0,-52.65128 q 0,-15.69966 -3.8292,-22.59219 -3.8292,-7.08399 -14.7423,-7.08399 -5.5524,0 -10.5303,1.91459 -4.9779,1.72313 -7.4669,3.44627 1.5317,4.78648 2.106,10.14734 0.5744,5.36085 0.5744,11.48755 l 0,55.33171 -23.1665,0 0,-52.65128 z"
         style="font-style:normal;font-variant:normal;font-weight:500;font-stretch:normal;font-family:Ubuntu;-inkscape-font-specification:'Ubuntu Medium';letter-spacing:0px;word-spacing:0.77915168px;fill:none;stroke:#00ff00;stroke-width:0.89500993px;stroke-opacity:1"
         id="path3370"
         inkscape:connector-curvature="0" />
      <path
         d="m -928.51541,480.57081 q -6.70108,1.72313 -17.42279,3.44626 -10.72172,1.9146 -23.54948,1.9146 -12.06193,0 -20.29468,-3.44627 -8.04128,-3.44627 -13.01924,-9.57296 -4.7865,-6.12669 -6.8925,-14.5509 -2.1061,-8.61566 -2.1061,-18.763 l 0,-56.09755 23.1666,0 0,52.45982 q 0,16.08258 4.59502,22.97511 4.78648,6.89253 16.46549,6.89253 4.2121,0 8.80712,-0.38292 4.78648,-0.38292 7.08399,-0.95729 l 0,-80.98725 23.16657,0 0,97.06982 z M -989.97382,367.0355 q -5.1694,0 -8.99858,-3.44626 -3.8292,-3.44627 -3.8292,-9.3815 0,-5.93524 3.8292,-9.3815 3.82918,-3.63773 8.99858,-3.63773 5.1694,0 8.99859,3.63773 4.02064,3.44626 4.02064,9.3815 0,5.93523 -4.02064,9.3815 -3.82919,3.44626 -8.99859,3.44626 z m 39.63206,0 q -5.1694,0 -9.19004,-3.44626 -3.82919,-3.44627 -3.82919,-9.3815 0,-5.93524 3.82919,-9.3815 4.02064,-3.63773 9.19004,-3.63773 5.1694,0 8.99858,3.63773 3.82918,3.44626 3.82918,9.3815 0,5.93523 -3.82918,9.3815 -3.82918,3.44626 -8.99858,3.44626 z"
         style="font-style:normal;font-variant:normal;font-weight:500;font-stretch:normal;font-family:Ubuntu;-inkscape-font-specification:'Ubuntu Medium';letter-spacing:0px;word-spacing:0.77915168px;fill:none;stroke:#00ff00;stroke-width:0.89500993px;stroke-opacity:1"
         id="path3372"
         inkscape:connector-curvature="0" />
      <path
         d="m -863.99666,485.54875 q -10.3388,-0.19146 -17.23133,-2.29751 -6.70107,-2.10605 -10.72172,-5.93524 -4.02064,-4.02064 -5.74377,-9.76442 -1.53167,-5.93523 -1.53167,-13.40214 l 0,-115.25844 23.16656,-3.82918 0,114.68406 q 0,4.2121 0.57438,7.08399 0.76583,2.87189 2.48897,4.97794 1.72313,1.91459 4.59502,3.06334 3.06334,0.9573 7.65836,1.53168 l -3.2548,19.14592 z"
         style="font-style:normal;font-variant:normal;font-weight:500;font-stretch:normal;font-family:Ubuntu;-inkscape-font-specification:'Ubuntu Medium';letter-spacing:0px;word-spacing:0.77915168px;fill:none;stroke:#00ff00;stroke-width:0.89500993px;stroke-opacity:1"
         id="path3374"
         inkscape:connector-curvature="0" />
      <path
         d="m -807.15718,485.54875 q -10.3388,-0.19146 -17.23133,-2.29751 -6.70107,-2.10605 -10.72172,-5.93524 -4.02064,-4.02064 -5.74377,-9.76442 -1.53168,-5.93523 -1.53168,-13.40214 l 0,-115.25844 23.16657,-3.82918 0,114.68406 q 0,4.2121 0.57437,7.08399 0.76584,2.87189 2.48897,4.97794 1.72314,1.91459 4.59502,3.06334 3.06335,0.9573 7.65837,1.53168 l -3.2548,19.14592 z"
         style="font-style:normal;font-variant:normal;font-weight:500;font-stretch:normal;font-family:Ubuntu;-inkscape-font-specification:'Ubuntu Medium';letter-spacing:0px;word-spacing:0.77915168px;fill:none;stroke:#00ff00;stroke-width:0.89500993px;stroke-opacity:1"
         id="path3376"
         inkscape:connector-curvature="0" />
    </g>
    <rect
       style="color:#000000;display:inline;overflow:visible;visibility:visible;opacity:1;fill:none;fill-opacity:1;fill-rule:evenodd;stroke:#00ff00;stroke-width:1.15400004;stroke-linecap:butt;stroke-linejoin:miter;stroke-miterlimit:4;stroke-dasharray:none;stroke-dashoffset:0;stroke-opacity:1;marker:none;enable-background:accumulate"
       id="rect3435"
       width="884.67279"
       height="884.67279"
       x="213.70743"
       y="80.843597" />
    <rect
       style="color:#000000;display:inline;overflow:visible;visibility:visible;opacity:1;fill:none;fill-opacity:1;fill-rule:evenodd;stroke:#000000;stroke-width:1.15400004;stroke-linecap:butt;stroke-linejoin:miter;stroke-miterlimit:4;stroke-dasharray:none;stroke-dashoffset:0;stroke-opacity:1;marker:none;enable-background:accumulate"
       id="rect3437"
       width="1285.7142"
       height="1005.7143"
       x="13.186707"
       y="20.322845" />
    <rect
       style="color:#000000;display:inline;overflow:visible;visibility:visible;opacity:1;fill:none;fill-opacity:1;fill-rule:evenodd;stroke:#000000;stroke-width:1.15400004;stroke-linecap:butt;stroke-linejoin:miter;stroke-miterlimit:4;stroke-dasharray:none;stroke-dashoffset:0;stroke-opacity:1;marker:none;enable-background:accumulate"
       id="rect3439"
       width="707.50745"
       height="707.50745"
       x="302.2901"
       y="169.42627" />
    <g
       id="g4241"
       style="font-style:normal;font-variant:normal;font-weight:normal;font-stretch:normal;font-size:191.459198px;line-height:100%;font-family:Ubuntu;-inkscape-font-specification:'Ubuntu, Normal';text-align:start;letter-spacing:-23.07082939px;word-spacing:0px;writing-mode:lr-tb;text-anchor:start;fill:none;fill-opacity:1;stroke:#00ff00;stroke-width:0.89500993px;stroke-linecap:butt;stroke-linejoin:miter;stroke-opacity:1"
       transform="matrix(0,1.3322289,-0.93705581,0,1581.4821,2036.5468)">
      <path
         inkscape:connector-curvature="0"
         id="path4243"
         style="font-style:normal;font-variant:normal;font-weight:500;font-stretch:normal;font-family:Ubuntu;-inkscape-font-specification:'Ubuntu Medium';letter-spacing:0px;word-spacing:0.77915168px;fill:none;stroke:#00ff00;stroke-width:0.89500993px;stroke-opacity:1"
         d="m -1427.9427,485.16583 q -10.5302,0 -21.252,-0.76584 -10.7217,-0.57438 -18.763,-2.68043 l 0,-128.85204 q 4.2121,-0.76583 8.9986,-1.34021 4.7865,-0.76584 9.7644,-1.14876 4.978,-0.38291 9.7645,-0.57437 4.9779,-0.19146 9.3815,-0.19146 12.0619,0 22.4007,1.91459 10.3388,1.72313 17.8057,5.93523 7.6584,4.21211 11.8705,11.10464 4.2121,6.89253 4.2121,17.03987 0,9.3815 -4.5951,16.08257 -4.4035,6.70107 -12.4448,10.72171 12.0619,4.02065 17.8057,11.87047 5.7438,7.84983 5.7438,19.91176 0,20.48613 -14.9338,30.82493 -14.9339,10.14734 -45.7588,10.14734 z m -16.274,-61.26694 0,40.39789 q 4.0206,0.38291 8.6156,0.57437 4.5951,0.19146 8.4242,0.19146 7.467,0 13.7851,-0.95729 6.5096,-0.9573 11.1046,-3.25481 4.7865,-2.48897 7.4669,-6.50961 2.8719,-4.02065 2.8719,-10.3388 0,-11.29609 -8.2327,-15.69965 -8.2328,-4.40356 -22.7837,-4.40356 l -21.2519,0 z m 0,-18.95447 17.0398,0 q 13.7851,0 21.6349,-3.82918 7.8499,-4.02064 7.8499,-14.16798 0,-9.57296 -8.2328,-13.5936 -8.0413,-4.02065 -21.0605,-4.02065 -5.5523,0 -9.9559,0.19146 -4.2121,0.19146 -7.2754,0.57438 l 0,34.84557 z" />
      <path
         inkscape:connector-curvature="0"
         id="path4245"
         style="font-style:normal;font-variant:normal;font-weight:500;font-stretch:normal;font-family:Ubuntu;-inkscape-font-specification:'Ubuntu Medium';letter-spacing:0px;word-spacing:0.77915168px;fill:none;stroke:#00ff00;stroke-width:0.89500993px;stroke-opacity:1"
         d="m -1320.1033,483.63416 -23.1666,0 0,-100.13317 23.1666,0 0,100.13317 z m 2.489,-129.42642 q 0,6.50961 -4.2121,10.33879 -4.2121,3.82919 -9.9559,3.82919 -5.9352,0 -10.1474,-3.82919 -4.2121,-3.82918 -4.2121,-10.33879 0,-6.70107 4.2121,-10.53026 4.2122,-3.82918 10.1474,-3.82918 5.7438,0 9.9559,3.82918 4.2121,3.82919 4.2121,10.53026 z" />
      <path
         inkscape:connector-curvature="0"
         id="path4247"
         style="font-style:normal;font-variant:normal;font-weight:500;font-stretch:normal;font-family:Ubuntu;-inkscape-font-specification:'Ubuntu Medium';letter-spacing:0px;word-spacing:0.77915168px;fill:none;stroke:#00ff00;stroke-width:0.89500993px;stroke-opacity:1"
         d="m -1200.1751,433.47185 q 0,11.87047 -3.4462,21.63488 -3.4463,9.76442 -9.7644,16.65695 -6.3182,6.89254 -15.3168,10.72172 -8.8071,3.82918 -19.5288,3.82918 -10.7217,0 -19.5289,-3.82918 -8.8071,-3.82918 -15.1252,-10.72172 -6.3182,-6.89253 -9.9559,-16.65695 -3.4463,-9.76441 -3.4463,-21.63488 0,-11.87047 3.4463,-21.44343 3.6377,-9.76442 9.9559,-16.65696 6.5096,-6.89253 15.3167,-10.53025 8.8071,-3.82918 19.3374,-3.82918 10.5302,0 19.3374,3.82918 8.9985,3.63772 15.3167,10.53025 6.3182,6.89254 9.7644,16.65696 3.6377,9.57296 3.6377,21.44343 z m -23.7409,0 q 0,-14.93382 -6.5096,-23.54949 -6.3182,-8.80712 -17.8057,-8.80712 -11.4876,0 -17.9972,8.80712 -6.3181,8.61567 -6.3181,23.54949 0,15.12527 6.3181,23.9324 6.5096,8.80712 17.9972,8.80712 11.4875,0 17.8057,-8.80712 6.5096,-8.80713 6.5096,-23.9324 z" />
      <path
         inkscape:connector-curvature="0"
         id="path4249"
         style="font-style:normal;font-variant:normal;font-weight:500;font-stretch:normal;font-family:Ubuntu;-inkscape-font-specification:'Ubuntu Medium';letter-spacing:0px;word-spacing:0.77915168px;fill:none;stroke:#00ff00;stroke-width:0.89500993px;stroke-opacity:1"
         d="m -1119.2536,430.98288 q 0,-15.69966 -4.0207,-22.59219 -3.8292,-7.08399 -14.5509,-7.08399 -3.8292,0 -8.4242,0.57438 -4.595,0.57438 -6.8925,0.95729 l 0,80.79579 -23.1666,0 0,-96.87836 q 6.7011,-1.91459 17.4228,-3.63772 10.9132,-1.72314 22.9751,-1.72314 10.3388,0 16.8484,2.68043 6.7011,2.68043 11.1046,7.08399 2.1061,-1.53167 5.3609,-3.2548 3.2548,-1.72314 7.2755,-3.06335 4.0206,-1.53167 8.4242,-2.48897 4.595,-0.9573 9.19,-0.9573 11.679,0 19.1459,3.44627 7.6584,3.25481 11.8705,9.3815 4.4036,5.93523 5.9352,14.5509 1.7232,8.4242 1.7232,18.57154 l 0,56.28901 -23.1666,0 0,-52.65128 q 0,-15.69966 -3.8292,-22.59219 -3.8292,-7.08399 -14.7423,-7.08399 -5.5524,0 -10.5303,1.91459 -4.9779,1.72313 -7.4669,3.44627 1.5317,4.78648 2.106,10.14734 0.5744,5.36085 0.5744,11.48755 l 0,55.33171 -23.1665,0 0,-52.65128 z" />
      <path
         inkscape:connector-curvature="0"
         id="path4251"
         style="font-style:normal;font-variant:normal;font-weight:500;font-stretch:normal;font-family:Ubuntu;-inkscape-font-specification:'Ubuntu Medium';letter-spacing:0px;word-spacing:0.77915168px;fill:none;stroke:#00ff00;stroke-width:0.89500993px;stroke-opacity:1"
         d="m -928.51541,480.57081 q -6.70108,1.72313 -17.42279,3.44626 -10.72172,1.9146 -23.54948,1.9146 -12.06193,0 -20.29468,-3.44627 -8.04128,-3.44627 -13.01924,-9.57296 -4.7865,-6.12669 -6.8925,-14.5509 -2.1061,-8.61566 -2.1061,-18.763 l 0,-56.09755 23.1666,0 0,52.45982 q 0,16.08258 4.59502,22.97511 4.78648,6.89253 16.46549,6.89253 4.2121,0 8.80712,-0.38292 4.78648,-0.38292 7.08399,-0.95729 l 0,-80.98725 23.16657,0 0,97.06982 z M -989.97382,367.0355 q -5.1694,0 -8.99858,-3.44626 -3.8292,-3.44627 -3.8292,-9.3815 0,-5.93524 3.8292,-9.3815 3.82918,-3.63773 8.99858,-3.63773 5.1694,0 8.99859,3.63773 4.02064,3.44626 4.02064,9.3815 0,5.93523 -4.02064,9.3815 -3.82919,3.44626 -8.99859,3.44626 z m 39.63206,0 q -5.1694,0 -9.19004,-3.44626 -3.82919,-3.44627 -3.82919,-9.3815 0,-5.93524 3.82919,-9.3815 4.02064,-3.63773 9.19004,-3.63773 5.1694,0 8.99858,3.63773 3.82918,3.44626 3.82918,9.3815 0,5.93523 -3.82918,9.3815 -3.82918,3.44626 -8.99858,3.44626 z" />
      <path
         inkscape:connector-curvature="0"
         id="path4253"
         style="font-style:normal;font-variant:normal;font-weight:500;font-stretch:normal;font-family:Ubuntu;-inkscape-font-specification:'Ubuntu Medium';letter-spacing:0px;word-spacing:0.77915168px;fill:none;stroke:#00ff00;stroke-width:0.89500993px;stroke-opacity:1"
         d="m -863.99666,485.54875 q -10.3388,-0.19146 -17.23133,-2.29751 -6.70107,-2.10605 -10.72172,-5.93524 -4.02064,-4.02064 -5.74377,-9.76442 -1.53167,-5.93523 -1.53167,-13.40214 l 0,-115.25844 23.16656,-3.82918 0,114.68406 q 0,4.2121 0.57438,7.08399 0.76583,2.87189 2.48897,4.97794 1.72313,1.91459 4.59502,3.06334 3.06334,0.9573 7.65836,1.53168 l -3.2548,19.14592 z" />
      <path
         inkscape:connector-curvature="0"
         id="path4255"
         style="font-style:normal;font-variant:normal;font-weight:500;font-stretch:normal;font-family:Ubuntu;-inkscape-font-specification:'Ubuntu Medium';letter-spacing:0px;word-spacing:0.77915168px;fill:none;stroke:#00ff00;stroke-width:0.89500993px;stroke-opacity:1"
         d="m -807.15718,485.54875 q -10.3388,-0.19146 -17.23133,-2.29751 -6.70107,-2.10605 -10.72172,-5.93524 -4.02064,-4.02064 -5.74377,-9.76442 -1.53168,-5.93523 -1.53168,-13.40214 l 0,-115.25844 23.16657,-3.82918 0,114.68406 q 0,4.2121 0.57437,7.08399 0.76584,2.87189 2.48897,4.97794 1.72314,1.91459 4.59502,3.06334 3.06335,0.9573 7.65837,1.53168 l -3.2548,19.14592 z" />
    </g>
    <path
       style="color:#000000;display:inline;overflow:visible;visibility:visible;opacity:1;fill:none;fill-opacity:1;fill-rule:evenodd;stroke:#000000;stroke-width:1.15400004;stroke-linecap:butt;stroke-linejoin:miter;stroke-miterlimit:4;stroke-dasharray:none;stroke-dashoffset:0;stroke-opacity:1;marker:none;enable-background:accumulate"
       d="m 262.15973,122.78628 a 6.509614,6.509614 0 0 1 -6.50962,6.50961 6.509614,6.509614 0 0 1 -6.50961,-6.50961 6.509614,6.509614 0 0 1 6.50961,-6.50961 6.509614,6.509614 0 0 1 6.50962,6.50961 z"
       id="path4257"
       inkscape:connector-curvature="0" />
    <path
       style="color:#000000;display:inline;overflow:visible;visibility:visible;opacity:1;fill:none;fill-opacity:1;fill-rule:evenodd;stroke:#000000;stroke-width:1.15400004;stroke-linecap:butt;stroke-linejoin:miter;stroke-miterlimit:4;stroke-dasharray:none;stroke-dashoffset:0;stroke-opacity:1;marker:none;enable-background:accumulate"
       d="m 1062.9471,923.5737 a 6.509614,6.509614 0 0 1 -6.5096,6.50962 6.509614,6.509614 0 0 1 -6.5096,-6.50962 6.509614,6.509614 0 0 1 6.5096,-6.50961 6.509614,6.509614 0 0 1 6.5096,6.50961 z"
       id="circle4259"
       inkscape:connector-curvature="0" />
    <path
       style="color:#000000;display:inline;overflow:visible;visibility:visible;opacity:1;fill:none;fill-opacity:1;fill-rule:evenodd;stroke:#000000;stroke-width:1.15400004;stroke-linecap:butt;stroke-linejoin:miter;stroke-miterlimit:4;stroke-dasharray:none;stroke-dashoffset:0;stroke-opacity:1;marker:none;enable-background:accumulate"
       d="m 262.15973,923.5737 a 6.509614,6.509614 0 0 1 -6.50962,6.50962 6.509614,6.509614 0 0 1 -6.50961,-6.50962 6.509614,6.509614 0 0 1 6.50961,-6.50961 6.509614,6.509614 0 0 1 6.50962,6.50961 z"
       id="circle4261"
       inkscape:connector-curvature="0" />
    <path
       style="color:#000000;display:inline;overflow:visible;visibility:visible;opacity:1;fill:none;fill-opacity:1;fill-rule:evenodd;stroke:#000000;stroke-width:1.15400004;stroke-linecap:butt;stroke-linejoin:miter;stroke-miterlimit:4;stroke-dasharray:none;stroke-dashoffset:0;stroke-opacity:1;marker:none;enable-background:accumulate"
       d="m 1062.9471,122.78628 a 6.509614,6.509614 0 0 1 -6.5096,6.50961 6.509614,6.509614 0 0 1 -6.5096,-6.50961 6.509614,6.509614 0 0 1 6.5096,-6.50961 6.509614,6.509614 0 0 1 6.5096,6.50961 z"
       id="circle4263"
       inkscape:connector-curvature="0" />
  </g>
</svg>
